<?xml version="1.0" encoding="UTF-8" standalone="no"?>
<!DOCTYPE svg PUBLIC "-//W3C//DTD SVG 1.1//EN"
 "http://www.w3.org/Graphics/SVG/1.1/DTD/svg11.dtd">
<!-- Generated by graphviz version 2.43.0 (0)
 -->
<!-- Title: %3 Pages: 1 -->
<svg width="4281pt" height="155pt"
 viewBox="0.00 0.00 4280.88 155.08" xmlns="http://www.w3.org/2000/svg" xmlns:xlink="http://www.w3.org/1999/xlink">
<g id="graph0" class="graph" transform="scale(1 1) rotate(0) translate(4 151.08)">
<title>%3</title>
<polygon fill="white" stroke="transparent" points="-4,4 -4,-151.08 4276.88,-151.08 4276.88,4 -4,4"/>
<!-- ComputePathToState#1 -->
<g id="node1" class="node">
<title>ComputePathToState#1</title>
<ellipse fill="#e7efff" stroke="black" cx="127.28" cy="-123.04" rx="127.06" ry="24.08"/>
<text text-anchor="start" x="45.28" y="-124.24" font-family="Times,serif" font-weight="bold" font-size="16.00" fill="#172546">ComputePathToState#1</text>
<text text-anchor="start" x="83.78" y="-113.04" font-family="Times,serif" font-size="10.00" fill="#172546">ComputePathToState</text>
</g>
<!-- ExecuteTrajectory#1 -->
<g id="node2" class="node">
<title>ExecuteTrajectory#1</title>
<ellipse fill="#e7efff" stroke="black" cx="402.28" cy="-123.04" rx="111.95" ry="24.08"/>
<text text-anchor="start" x="331.28" y="-124.24" font-family="Times,serif" font-weight="bold" font-size="16.00" fill="#172546">ExecuteTrajectory#1</text>
<text text-anchor="start" x="364.28" y="-113.04" font-family="Times,serif" font-size="10.00" fill="#172546">ExecuteTrajectory</text>
</g>
<!-- ComputePathToState#1&#45;&gt;ExecuteTrajectory#1 -->
<g id="edge1" class="edge">
<title>ComputePathToState#1&#45;&gt;ExecuteTrajectory#1</title>
<path fill="none" stroke="#222222" stroke-width="1.8" d="M254.79,-123.04C262.94,-123.04 271.14,-123.04 279.27,-123.04"/>
<polygon fill="#222222" stroke="#222222" stroke-width="1.8" points="279.3,-126.89 290.3,-123.04 279.3,-119.19 279.3,-126.89"/>
</g>
<!-- YaskawaGripperCommand#1 -->
<g id="node3" class="node">
<title>YaskawaGripperCommand#1</title>
<ellipse fill="#e7efff" stroke="black" cx="706.27" cy="-123.04" rx="156.04" ry="24.08"/>
<text text-anchor="start" x="603.77" y="-124.24" font-family="Times,serif" font-weight="bold" font-size="16.00" fill="#172546">YaskawaGripperCommand#1</text>
<text text-anchor="start" x="651.27" y="-113.04" font-family="Times,serif" font-size="10.00" fill="#172546">YaskawaGripperCommand</text>
</g>
<!-- ExecuteTrajectory#1&#45;&gt;YaskawaGripperCommand#1 -->
<g id="edge2" class="edge">
<title>ExecuteTrajectory#1&#45;&gt;YaskawaGripperCommand#1</title>
<path fill="none" stroke="#222222" stroke-width="1.8" d="M514.02,-123.04C522.15,-123.04 530.46,-123.04 538.82,-123.04"/>
<polygon fill="#222222" stroke="#222222" stroke-width="1.8" points="538.85,-126.89 549.85,-123.04 538.85,-119.19 538.85,-126.89"/>
</g>
<!-- DetectArucoMarker#1 -->
<g id="node4" class="node">
<title>DetectArucoMarker#1</title>
<ellipse fill="#e7efff" stroke="black" cx="1018.75" cy="-123.04" rx="120.42" ry="24.08"/>
<text text-anchor="start" x="941.75" y="-124.24" font-family="Times,serif" font-weight="bold" font-size="16.00" fill="#172546">DetectArucoMarker#1</text>
<text text-anchor="start" x="977.75" y="-113.04" font-family="Times,serif" font-size="10.00" fill="#172546">DetectArucoMarker</text>
</g>
<!-- YaskawaGripperCommand#1&#45;&gt;DetectArucoMarker#1 -->
<g id="edge3" class="edge">
<title>YaskawaGripperCommand#1&#45;&gt;DetectArucoMarker#1</title>
<path fill="none" stroke="#222222" stroke-width="1.8" d="M862.97,-123.04C871.19,-123.04 879.4,-123.04 887.52,-123.04"/>
<polygon fill="#222222" stroke="#222222" stroke-width="1.8" points="887.53,-126.89 898.53,-123.04 887.53,-119.19 887.53,-126.89"/>
</g>
<!-- UpdatePose#1 -->
<g id="node5" class="node">
<title>UpdatePose#1</title>
<ellipse fill="#e7efff" stroke="black" cx="1254.86" cy="-123.04" rx="79.81" ry="24.08"/>
<text text-anchor="start" x="1206.36" y="-124.24" font-family="Times,serif" font-weight="bold" font-size="16.00" fill="#172546">UpdatePose#1</text>
<text text-anchor="start" x="1230.36" y="-113.04" font-family="Times,serif" font-size="10.00" fill="#172546">UpdatePose</text>
</g>
<!-- DetectArucoMarker#1&#45;&gt;UpdatePose#1 -->
<g id="edge4" class="edge">
<title>DetectArucoMarker#1&#45;&gt;UpdatePose#1</title>
<path fill="none" stroke="#222222" stroke-width="1.8" d="M1139.21,-123.04C1147.41,-123.04 1155.59,-123.04 1163.6,-123.04"/>
<polygon fill="#222222" stroke="#222222" stroke-width="1.8" points="1163.78,-126.89 1174.78,-123.04 1163.78,-119.19 1163.78,-126.89"/>
</g>
<!-- UpdateOrientationInPose#1 -->
<g id="node6" class="node">
<title>UpdateOrientationInPose#1</title>
<ellipse fill="#e7efff" stroke="black" cx="1518.55" cy="-123.04" rx="147.57" ry="24.08"/>
<text text-anchor="start" x="1422.05" y="-124.24" font-family="Times,serif" font-weight="bold" font-size="16.00" fill="#172546">UpdateOrientationInPose#1</text>
<text text-anchor="start" x="1466.05" y="-113.04" font-family="Times,serif" font-size="10.00" fill="#172546">UpdateOrientationInPose</text>
</g>
<!-- UpdatePose#1&#45;&gt;UpdateOrientationInPose#1 -->
<g id="edge5" class="edge">
<title>UpdatePose#1&#45;&gt;UpdateOrientationInPose#1</title>
<path fill="none" stroke="#222222" stroke-width="1.8" d="M1335.09,-123.04C1342.85,-123.04 1350.89,-123.04 1359.09,-123.04"/>
<polygon fill="#222222" stroke="#222222" stroke-width="1.8" points="1359.35,-126.89 1370.35,-123.04 1359.35,-119.19 1359.35,-126.89"/>
</g>
<!-- ComputePathToPose#1 -->
<g id="node8" class="node">
<title>ComputePathToPose#1</title>
<ellipse fill="#e7efff" stroke="black" cx="1826.79" cy="-90.04" rx="124.4" ry="24.08"/>
<text text-anchor="start" x="1746.79" y="-91.24" font-family="Times,serif" font-weight="bold" font-size="16.00" fill="#172546">ComputePathToPose#1</text>
<text text-anchor="start" x="1784.29" y="-80.04" font-family="Times,serif" font-size="10.00" fill="#172546">ComputePathToPose</text>
</g>
<!-- UpdateOrientationInPose#1&#45;&gt;ComputePathToPose#1 -->
<g id="edge6" class="edge">
<title>UpdateOrientationInPose#1&#45;&gt;ComputePathToPose#1</title>
<path fill="none" stroke="#222222" stroke-width="1.8" d="M1642.35,-109.81C1663.6,-107.52 1685.67,-105.14 1706.82,-102.86"/>
<polygon fill="#222222" stroke="#222222" stroke-width="1.8" points="1707.26,-106.69 1717.79,-101.68 1706.44,-99.03 1707.26,-106.69"/>
</g>
<!-- SetPathConstraints#1 -->
<g id="node7" class="node">
<title>SetPathConstraints#1</title>
<ellipse fill="#d3f5dd" stroke="black" cx="1518.55" cy="-57.04" rx="117.26" ry="24.08"/>
<text text-anchor="start" x="1443.55" y="-58.24" font-family="Times,serif" font-weight="bold" font-size="16.00" fill="#172546">SetPathConstraints#1</text>
<text text-anchor="start" x="1479.55" y="-47.04" font-family="Times,serif" font-size="10.00" fill="#172546">SetPathConstraints</text>
</g>
<!-- SetPathConstraints#1&#45;&gt;ComputePathToPose#1 -->
<g id="edge15" class="edge">
<title>SetPathConstraints#1&#45;&gt;ComputePathToPose#1</title>
<path fill="none" stroke="#222222" stroke-width="1.8" d="M1622.8,-68.17C1649.78,-71.08 1679.08,-74.23 1706.81,-77.22"/>
<polygon fill="#222222" stroke="#222222" stroke-width="1.8" points="1706.41,-81.05 1717.75,-78.4 1707.23,-73.39 1706.41,-81.05"/>
</g>
<!-- ExecuteTrajectory#2 -->
<g id="node9" class="node">
<title>ExecuteTrajectory#2</title>
<ellipse fill="#e7efff" stroke="black" cx="2098.96" cy="-90.04" rx="111.95" ry="24.08"/>
<text text-anchor="start" x="2027.96" y="-91.24" font-family="Times,serif" font-weight="bold" font-size="16.00" fill="#172546">ExecuteTrajectory#2</text>
<text text-anchor="start" x="2060.96" y="-80.04" font-family="Times,serif" font-size="10.00" fill="#172546">ExecuteTrajectory</text>
</g>
<!-- ComputePathToPose#1&#45;&gt;ExecuteTrajectory#2 -->
<g id="edge7" class="edge">
<title>ComputePathToPose#1&#45;&gt;ExecuteTrajectory#2</title>
<path fill="none" stroke="#222222" stroke-width="1.8" d="M1951.41,-90.04C1959.53,-90.04 1967.71,-90.04 1975.82,-90.04"/>
<polygon fill="#222222" stroke="#222222" stroke-width="1.8" points="1975.83,-93.89 1986.83,-90.04 1975.83,-86.19 1975.83,-93.89"/>
</g>
<!-- YaskawaGripperCommand#2 -->
<g id="node10" class="node">
<title>YaskawaGripperCommand#2</title>
<ellipse fill="#e7efff" stroke="black" cx="2402.96" cy="-90.04" rx="156.04" ry="24.08"/>
<text text-anchor="start" x="2300.46" y="-91.24" font-family="Times,serif" font-weight="bold" font-size="16.00" fill="#172546">YaskawaGripperCommand#2</text>
<text text-anchor="start" x="2347.96" y="-80.04" font-family="Times,serif" font-size="10.00" fill="#172546">YaskawaGripperCommand</text>
</g>
<!-- ExecuteTrajectory#2&#45;&gt;YaskawaGripperCommand#2 -->
<g id="edge8" class="edge">
<title>ExecuteTrajectory#2&#45;&gt;YaskawaGripperCommand#2</title>
<path fill="none" stroke="#222222" stroke-width="1.8" d="M2210.7,-90.04C2218.83,-90.04 2227.14,-90.04 2235.5,-90.04"/>
<polygon fill="#222222" stroke="#222222" stroke-width="1.8" points="2235.53,-93.89 2246.53,-90.04 2235.53,-86.19 2235.53,-93.89"/>
</g>
<!-- ComputePathToState#2 -->
<g id="node11" class="node">
<title>ComputePathToState#2</title>
<ellipse fill="#e7efff" stroke="black" cx="2722.51" cy="-90.04" rx="127.06" ry="24.08"/>
<text text-anchor="start" x="2640.51" y="-91.24" font-family="Times,serif" font-weight="bold" font-size="16.00" fill="#172546">ComputePathToState#2</text>
<text text-anchor="start" x="2679.01" y="-80.04" font-family="Times,serif" font-size="10.00" fill="#172546">ComputePathToState</text>
</g>
<!-- YaskawaGripperCommand#2&#45;&gt;ComputePathToState#2 -->
<g id="edge9" class="edge">
<title>YaskawaGripperCommand#2&#45;&gt;ComputePathToState#2</title>
<path fill="none" stroke="#222222" stroke-width="1.8" d="M2559.48,-90.04C2567.69,-90.04 2575.91,-90.04 2584.05,-90.04"/>
<polygon fill="#222222" stroke="#222222" stroke-width="1.8" points="2584.11,-93.89 2595.11,-90.04 2584.11,-86.19 2584.11,-93.89"/>
</g>
<!-- ExecuteTrajectory#3 -->
<g id="node12" class="node">
<title>ExecuteTrajectory#3</title>
<ellipse fill="#e7efff" stroke="black" cx="2997.51" cy="-90.04" rx="111.95" ry="24.08"/>
<text text-anchor="start" x="2926.51" y="-91.24" font-family="Times,serif" font-weight="bold" font-size="16.00" fill="#172546">ExecuteTrajectory#3</text>
<text text-anchor="start" x="2959.51" y="-80.04" font-family="Times,serif" font-size="10.00" fill="#172546">ExecuteTrajectory</text>
</g>
<!-- ComputePathToState#2&#45;&gt;ExecuteTrajectory#3 -->
<g id="edge10" class="edge">
<title>ComputePathToState#2&#45;&gt;ExecuteTrajectory#3</title>
<path fill="none" stroke="#222222" stroke-width="1.8" d="M2850.02,-90.04C2858.17,-90.04 2866.37,-90.04 2874.5,-90.04"/>
<polygon fill="#222222" stroke="#222222" stroke-width="1.8" points="2874.53,-93.89 2885.53,-90.04 2874.53,-86.19 2874.53,-93.89"/>
</g>
<!-- CreatePose#1 -->
<g id="node13" class="node">
<title>CreatePose#1</title>
<ellipse fill="#e7efff" stroke="black" cx="3262.61" cy="-90.04" rx="77.15" ry="24.08"/>
<text text-anchor="start" x="3216.11" y="-91.24" font-family="Times,serif" font-weight="bold" font-size="16.00" fill="#172546">CreatePose#1</text>
<text text-anchor="start" x="3239.61" y="-80.04" font-family="Times,serif" font-size="10.00" fill="#172546">CreatePose</text>
</g>
<!-- ExecuteTrajectory#3&#45;&gt;CreatePose#1 -->
<g id="edge11" class="edge">
<title>ExecuteTrajectory#3&#45;&gt;CreatePose#1</title>
<path fill="none" stroke="#222222" stroke-width="1.8" d="M3109.32,-90.04C3130.99,-90.04 3153.43,-90.04 3174.2,-90.04"/>
<polygon fill="#222222" stroke="#222222" stroke-width="1.8" points="3174.23,-93.89 3185.23,-90.04 3174.23,-86.19 3174.23,-93.89"/>
</g>
<!-- ComputePathToPose#2 -->
<g id="node15" class="node">
<title>ComputePathToPose#2</title>
<ellipse fill="#e7efff" stroke="black" cx="3540.44" cy="-57.04" rx="124.4" ry="24.08"/>
<text text-anchor="start" x="3460.44" y="-58.24" font-family="Times,serif" font-weight="bold" font-size="16.00" fill="#172546">ComputePathToPose#2</text>
<text text-anchor="start" x="3497.94" y="-47.04" font-family="Times,serif" font-size="10.00" fill="#172546">ComputePathToPose</text>
</g>
<!-- CreatePose#1&#45;&gt;ComputePathToPose#2 -->
<g id="edge12" class="edge">
<title>CreatePose#1&#45;&gt;ComputePathToPose#2</title>
<path fill="none" stroke="#222222" stroke-width="1.8" d="M3335,-81.5C3361.94,-78.28 3393.34,-74.52 3423.32,-70.93"/>
<polygon fill="#222222" stroke="#222222" stroke-width="1.8" points="3423.83,-74.75 3434.29,-69.62 3422.91,-67.11 3423.83,-74.75"/>
</g>
<!-- SetPathConstraints#2 -->
<g id="node14" class="node">
<title>SetPathConstraints#2</title>
<ellipse fill="#d3f5dd" stroke="black" cx="3262.61" cy="-24.04" rx="117.26" ry="24.08"/>
<text text-anchor="start" x="3187.61" y="-25.24" font-family="Times,serif" font-weight="bold" font-size="16.00" fill="#172546">SetPathConstraints#2</text>
<text text-anchor="start" x="3223.61" y="-14.04" font-family="Times,serif" font-size="10.00" fill="#172546">SetPathConstraints</text>
</g>
<!-- SetPathConstraints#2&#45;&gt;ComputePathToPose#2 -->
<g id="edge16" class="edge">
<title>SetPathConstraints#2&#45;&gt;ComputePathToPose#2</title>
<path fill="none" stroke="#222222" stroke-width="1.8" d="M3364.36,-36.1C3383.49,-38.38 3403.65,-40.8 3423.21,-43.14"/>
<polygon fill="#222222" stroke="#222222" stroke-width="1.8" points="3422.95,-46.98 3434.33,-44.47 3423.86,-39.34 3422.95,-46.98"/>
</g>
<!-- ExecuteTrajectory#4 -->
<g id="node16" class="node">
<title>ExecuteTrajectory#4</title>
<ellipse fill="#e7efff" stroke="black" cx="3812.62" cy="-57.04" rx="111.95" ry="24.08"/>
<text text-anchor="start" x="3741.62" y="-58.24" font-family="Times,serif" font-weight="bold" font-size="16.00" fill="#172546">ExecuteTrajectory#4</text>
<text text-anchor="start" x="3774.62" y="-47.04" font-family="Times,serif" font-size="10.00" fill="#172546">ExecuteTrajectory</text>
</g>
<!-- ComputePathToPose#2&#45;&gt;ExecuteTrajectory#4 -->
<g id="edge13" class="edge">
<title>ComputePathToPose#2&#45;&gt;ExecuteTrajectory#4</title>
<path fill="none" stroke="#222222" stroke-width="1.8" d="M3665.06,-57.04C3673.18,-57.04 3681.36,-57.04 3689.47,-57.04"/>
<polygon fill="#222222" stroke="#222222" stroke-width="1.8" points="3689.48,-60.89 3700.48,-57.04 3689.48,-53.19 3689.48,-60.89"/>
</g>
<!-- YaskawaGripperCommand#3 -->
<g id="node17" class="node">
<title>YaskawaGripperCommand#3</title>
<ellipse fill="#e7efff" stroke="black" cx="4116.61" cy="-57.04" rx="156.04" ry="24.08"/>
<text text-anchor="start" x="4014.11" y="-58.24" font-family="Times,serif" font-weight="bold" font-size="16.00" fill="#172546">YaskawaGripperCommand#3</text>
<text text-anchor="start" x="4061.61" y="-47.04" font-family="Times,serif" font-size="10.00" fill="#172546">YaskawaGripperCommand</text>
</g>
<!-- ExecuteTrajectory#4&#45;&gt;YaskawaGripperCommand#3 -->
<g id="edge14" class="edge">
<title>ExecuteTrajectory#4&#45;&gt;YaskawaGripperCommand#3</title>
<path fill="none" stroke="#222222" stroke-width="1.8" d="M3924.35,-57.04C3932.49,-57.04 3940.79,-57.04 3949.16,-57.04"/>
<polygon fill="#222222" stroke="#222222" stroke-width="1.8" points="3949.18,-60.89 3960.18,-57.04 3949.18,-53.19 3949.18,-60.89"/>
</g>
</g>
</svg>
