<?xml version="1.0" encoding="UTF-8" standalone="no"?>
<!DOCTYPE svg PUBLIC "-//W3C//DTD SVG 1.1//EN"
 "http://www.w3.org/Graphics/SVG/1.1/DTD/svg11.dtd">
<!-- Generated by graphviz version 2.43.0 (0)
 -->
<!-- Title: MCTS Pages: 1 -->
<svg width="18653pt" height="1230pt"
 viewBox="0.00 0.00 18653.00 1230.00" xmlns="http://www.w3.org/2000/svg" xmlns:xlink="http://www.w3.org/1999/xlink">
<g id="graph0" class="graph" transform="scale(1 1) rotate(0) translate(4 1226)">
<title>MCTS</title>
<polygon fill="white" stroke="transparent" points="-4,4 -4,-1226 18649,-1226 18649,4 -4,4"/>
<!-- 0 -->
<g id="node1" class="node">
<title>0</title>
<path fill="none" stroke="black" d="M14950.5,-1222C14950.5,-1222 14863.5,-1222 14863.5,-1222 14857.5,-1222 14851.5,-1216 14851.5,-1210 14851.5,-1210 14851.5,-1196 14851.5,-1196 14851.5,-1190 14857.5,-1184 14863.5,-1184 14863.5,-1184 14950.5,-1184 14950.5,-1184 14956.5,-1184 14962.5,-1190 14962.5,-1196 14962.5,-1196 14962.5,-1210 14962.5,-1210 14962.5,-1216 14956.5,-1222 14950.5,-1222"/>
<text text-anchor="middle" x="14907" y="-1206.8" font-family="Times,serif" font-size="14.00">ROOT</text>
<text text-anchor="middle" x="14907" y="-1191.8" font-family="Times,serif" font-size="14.00">N=300, Q=0.906</text>
</g>
<!-- 1 -->
<g id="node2" class="node">
<title>1</title>
<path fill="none" stroke="black" d="M15136,-1148C15136,-1148 14678,-1148 14678,-1148 14672,-1148 14666,-1142 14666,-1136 14666,-1136 14666,-1122 14666,-1122 14666,-1116 14672,-1110 14678,-1110 14678,-1110 15136,-1110 15136,-1110 15142,-1110 15148,-1116 15148,-1122 15148,-1122 15148,-1136 15148,-1136 15148,-1142 15142,-1148 15136,-1148"/>
<text text-anchor="middle" x="14907" y="-1132.8" font-family="Times,serif" font-size="14.00">ComputePathToState#1.ComputePathToState.named_state=gp7_detect_arucomarker</text>
<text text-anchor="middle" x="14907" y="-1117.8" font-family="Times,serif" font-size="14.00">N=300, Q=0.906</text>
</g>
<!-- 0&#45;&gt;1 -->
<g id="edge1" class="edge">
<title>0&#45;&gt;1</title>
<path fill="none" stroke="black" d="M14907,-1183.83C14907,-1176.13 14907,-1166.97 14907,-1158.42"/>
<polygon fill="black" stroke="black" points="14910.5,-1158.41 14907,-1148.41 14903.5,-1158.41 14910.5,-1158.41"/>
</g>
<!-- 2 -->
<g id="node3" class="node">
<title>2</title>
<path fill="none" stroke="black" d="M14850,-1074C14850,-1074 14470,-1074 14470,-1074 14464,-1074 14458,-1068 14458,-1062 14458,-1062 14458,-1048 14458,-1048 14458,-1042 14464,-1036 14470,-1036 14470,-1036 14850,-1036 14850,-1036 14856,-1036 14862,-1042 14862,-1048 14862,-1048 14862,-1062 14862,-1062 14862,-1068 14856,-1074 14850,-1074"/>
<text text-anchor="middle" x="14660" y="-1058.8" font-family="Times,serif" font-size="14.00">ComputePathToState#1.ComputePathToState.planning_pipeline=ompl</text>
<text text-anchor="middle" x="14660" y="-1043.8" font-family="Times,serif" font-size="14.00">N=286, Q=0.905</text>
</g>
<!-- 1&#45;&gt;2 -->
<g id="edge2" class="edge">
<title>1&#45;&gt;2</title>
<path fill="none" stroke="black" d="M14844.99,-1109.92C14810.64,-1099.91 14767.76,-1087.41 14731.94,-1076.97"/>
<polygon fill="black" stroke="black" points="14732.62,-1073.52 14722.04,-1074.08 14730.66,-1080.24 14732.62,-1073.52"/>
</g>
<!-- 79 -->
<g id="node80" class="node">
<title>79</title>
<path fill="none" stroke="black" d="M16472.5,-1074C16472.5,-1074 15949.5,-1074 15949.5,-1074 15943.5,-1074 15937.5,-1068 15937.5,-1062 15937.5,-1062 15937.5,-1048 15937.5,-1048 15937.5,-1042 15943.5,-1036 15949.5,-1036 15949.5,-1036 16472.5,-1036 16472.5,-1036 16478.5,-1036 16484.5,-1042 16484.5,-1048 16484.5,-1048 16484.5,-1062 16484.5,-1062 16484.5,-1068 16478.5,-1074 16472.5,-1074"/>
<text text-anchor="middle" x="16211" y="-1058.8" font-family="Times,serif" font-size="14.00">ComputePathToState#1.ComputePathToState.planning_pipeline=pilz_industrial_motion_planner</text>
<text text-anchor="middle" x="16211" y="-1043.8" font-family="Times,serif" font-size="14.00">N=13, Q=0.920</text>
</g>
<!-- 1&#45;&gt;79 -->
<g id="edge79" class="edge">
<title>1&#45;&gt;79</title>
<path fill="none" stroke="black" d="M15148.07,-1114.69C15368.38,-1102.53 15694.34,-1084.53 15927.15,-1071.67"/>
<polygon fill="black" stroke="black" points="15927.68,-1075.15 15937.47,-1071.1 15927.29,-1068.16 15927.68,-1075.15"/>
</g>
<!-- 3 -->
<g id="node4" class="node">
<title>3</title>
<path fill="none" stroke="black" d="M12254.5,-1000C12254.5,-1000 11801.5,-1000 11801.5,-1000 11795.5,-1000 11789.5,-994 11789.5,-988 11789.5,-988 11789.5,-974 11789.5,-974 11789.5,-968 11795.5,-962 11801.5,-962 11801.5,-962 12254.5,-962 12254.5,-962 12260.5,-962 12266.5,-968 12266.5,-974 12266.5,-974 12266.5,-988 12266.5,-988 12266.5,-994 12260.5,-1000 12254.5,-1000"/>
<text text-anchor="middle" x="12028" y="-984.8" font-family="Times,serif" font-size="14.00">ComputePathToState#1.ComputePathToState.planner_id=BKPIECEkConfigDefault</text>
<text text-anchor="middle" x="12028" y="-969.8" font-family="Times,serif" font-size="14.00">N=275, Q=0.908</text>
</g>
<!-- 2&#45;&gt;3 -->
<g id="edge3" class="edge">
<title>2&#45;&gt;3</title>
<path fill="none" stroke="black" d="M14457.68,-1052.84C14048.05,-1049.73 13090.99,-1038.66 12276.75,-1000.07"/>
<polygon fill="black" stroke="black" points="12276.73,-996.57 12266.58,-999.59 12276.4,-1003.56 12276.73,-996.57"/>
</g>
<!-- 69 -->
<g id="node70" class="node">
<title>69</title>
<path fill="none" stroke="black" d="M12719.5,-1000C12719.5,-1000 12296.5,-1000 12296.5,-1000 12290.5,-1000 12284.5,-994 12284.5,-988 12284.5,-988 12284.5,-974 12284.5,-974 12284.5,-968 12290.5,-962 12296.5,-962 12296.5,-962 12719.5,-962 12719.5,-962 12725.5,-962 12731.5,-968 12731.5,-974 12731.5,-974 12731.5,-988 12731.5,-988 12731.5,-994 12725.5,-1000 12719.5,-1000"/>
<text text-anchor="middle" x="12508" y="-984.8" font-family="Times,serif" font-size="14.00">ComputePathToState#1.ComputePathToState.planner_id=RRTkConfigDefault</text>
<text text-anchor="middle" x="12508" y="-969.8" font-family="Times,serif" font-size="14.00">N=1, Q=0.914</text>
</g>
<!-- 2&#45;&gt;69 -->
<g id="edge69" class="edge">
<title>2&#45;&gt;69</title>
<path fill="none" stroke="black" d="M14457.73,-1051.59C14109.44,-1046.71 13373.79,-1033.2 12742.01,-1000.09"/>
<polygon fill="black" stroke="black" points="12741.95,-996.58 12731.78,-999.55 12741.58,-1003.57 12741.95,-996.58"/>
</g>
<!-- 70 -->
<g id="node71" class="node">
<title>70</title>
<path fill="none" stroke="black" d="M13192.5,-1000C13192.5,-1000 12761.5,-1000 12761.5,-1000 12755.5,-1000 12749.5,-994 12749.5,-988 12749.5,-988 12749.5,-974 12749.5,-974 12749.5,-968 12755.5,-962 12761.5,-962 12761.5,-962 13192.5,-962 13192.5,-962 13198.5,-962 13204.5,-968 13204.5,-974 13204.5,-974 13204.5,-988 13204.5,-988 13204.5,-994 13198.5,-1000 13192.5,-1000"/>
<text text-anchor="middle" x="12977" y="-984.8" font-family="Times,serif" font-size="14.00">ComputePathToState#1.ComputePathToState.planner_id=TRRTkConfigDefault</text>
<text text-anchor="middle" x="12977" y="-969.8" font-family="Times,serif" font-size="14.00">N=1, Q=0.916</text>
</g>
<!-- 2&#45;&gt;70 -->
<g id="edge70" class="edge">
<title>2&#45;&gt;70</title>
<path fill="none" stroke="black" d="M14457.98,-1048.94C14180.29,-1041.42 13664.81,-1025.45 13214.92,-1000.1"/>
<polygon fill="black" stroke="black" points="13214.82,-996.59 13204.64,-999.52 13214.43,-1003.58 13214.82,-996.59"/>
</g>
<!-- 71 -->
<g id="node72" class="node">
<title>71</title>
<path fill="none" stroke="black" d="M13656,-1000C13656,-1000 13234,-1000 13234,-1000 13228,-1000 13222,-994 13222,-988 13222,-988 13222,-974 13222,-974 13222,-968 13228,-962 13234,-962 13234,-962 13656,-962 13656,-962 13662,-962 13668,-968 13668,-974 13668,-974 13668,-988 13668,-988 13668,-994 13662,-1000 13656,-1000"/>
<text text-anchor="middle" x="13445" y="-984.8" font-family="Times,serif" font-size="14.00">ComputePathToState#1.ComputePathToState.planner_id=SBLkConfigDefault</text>
<text text-anchor="middle" x="13445" y="-969.8" font-family="Times,serif" font-size="14.00">N=1, Q=0.916</text>
</g>
<!-- 2&#45;&gt;71 -->
<g id="edge71" class="edge">
<title>2&#45;&gt;71</title>
<path fill="none" stroke="black" d="M14457.54,-1044.21C14261.16,-1034.41 13954.48,-1018.28 13678.4,-1000.08"/>
<polygon fill="black" stroke="black" points="13678.38,-996.58 13668.17,-999.41 13677.92,-1003.56 13678.38,-996.58"/>
</g>
<!-- 72 -->
<g id="node73" class="node">
<title>72</title>
<path fill="none" stroke="black" d="M14140,-1000C14140,-1000 13698,-1000 13698,-1000 13692,-1000 13686,-994 13686,-988 13686,-988 13686,-974 13686,-974 13686,-968 13692,-962 13698,-962 13698,-962 14140,-962 14140,-962 14146,-962 14152,-968 14152,-974 14152,-974 14152,-988 14152,-988 14152,-994 14146,-1000 14140,-1000"/>
<text text-anchor="middle" x="13919" y="-984.8" font-family="Times,serif" font-size="14.00">ComputePathToState#1.ComputePathToState.planner_id=RRTstarkConfigDefault</text>
<text text-anchor="middle" x="13919" y="-969.8" font-family="Times,serif" font-size="14.00">N=1, Q=0.917</text>
</g>
<!-- 2&#45;&gt;72 -->
<g id="edge72" class="edge">
<title>2&#45;&gt;72</title>
<path fill="none" stroke="black" d="M14474.45,-1035.97C14364.69,-1025.31 14225.82,-1011.81 14114.39,-1000.98"/>
<polygon fill="black" stroke="black" points="14114.66,-997.5 14104.37,-1000.01 14113.99,-1004.46 14114.66,-997.5"/>
</g>
<!-- 73 -->
<g id="node74" class="node">
<title>73</title>
<path fill="none" stroke="black" d="M14650,-1000C14650,-1000 14182,-1000 14182,-1000 14176,-1000 14170,-994 14170,-988 14170,-988 14170,-974 14170,-974 14170,-968 14176,-962 14182,-962 14182,-962 14650,-962 14650,-962 14656,-962 14662,-968 14662,-974 14662,-974 14662,-988 14662,-988 14662,-994 14656,-1000 14650,-1000"/>
<text text-anchor="middle" x="14416" y="-984.8" font-family="Times,serif" font-size="14.00">ComputePathToState#1.ComputePathToState.planner_id=RRTConnectkConfigDefault</text>
<text text-anchor="middle" x="14416" y="-969.8" font-family="Times,serif" font-size="14.00">N=1, Q=0.917</text>
</g>
<!-- 2&#45;&gt;73 -->
<g id="edge73" class="edge">
<title>2&#45;&gt;73</title>
<path fill="none" stroke="black" d="M14598.74,-1035.92C14564.81,-1025.91 14522.45,-1013.41 14487.07,-1002.97"/>
<polygon fill="black" stroke="black" points="14487.86,-999.56 14477.28,-1000.08 14485.88,-1006.27 14487.86,-999.56"/>
</g>
<!-- 74 -->
<g id="node75" class="node">
<title>74</title>
<path fill="none" stroke="black" d="M15118,-1000C15118,-1000 14692,-1000 14692,-1000 14686,-1000 14680,-994 14680,-988 14680,-988 14680,-974 14680,-974 14680,-968 14686,-962 14692,-962 14692,-962 15118,-962 15118,-962 15124,-962 15130,-968 15130,-974 15130,-974 15130,-988 15130,-988 15130,-994 15124,-1000 15118,-1000"/>
<text text-anchor="middle" x="14905" y="-984.8" font-family="Times,serif" font-size="14.00">ComputePathToState#1.ComputePathToState.planner_id=PRMkConfigDefault</text>
<text text-anchor="middle" x="14905" y="-969.8" font-family="Times,serif" font-size="14.00">N=1, Q=0.918</text>
</g>
<!-- 2&#45;&gt;74 -->
<g id="edge74" class="edge">
<title>2&#45;&gt;74</title>
<path fill="none" stroke="black" d="M14721.51,-1035.92C14755.58,-1025.91 14798.11,-1013.41 14833.64,-1002.97"/>
<polygon fill="black" stroke="black" points="14834.86,-1006.26 14843.47,-1000.08 14832.89,-999.54 14834.86,-1006.26"/>
</g>
<!-- 75 -->
<g id="node76" class="node">
<title>75</title>
<path fill="none" stroke="black" d="M15581.5,-1000C15581.5,-1000 15160.5,-1000 15160.5,-1000 15154.5,-1000 15148.5,-994 15148.5,-988 15148.5,-988 15148.5,-974 15148.5,-974 15148.5,-968 15154.5,-962 15160.5,-962 15160.5,-962 15581.5,-962 15581.5,-962 15587.5,-962 15593.5,-968 15593.5,-974 15593.5,-974 15593.5,-988 15593.5,-988 15593.5,-994 15587.5,-1000 15581.5,-1000"/>
<text text-anchor="middle" x="15371" y="-984.8" font-family="Times,serif" font-size="14.00">ComputePathToState#1.ComputePathToState.planner_id=ESTkConfigDefault</text>
<text text-anchor="middle" x="15371" y="-969.8" font-family="Times,serif" font-size="14.00">N=1, Q=0.917</text>
</g>
<!-- 2&#45;&gt;75 -->
<g id="edge75" class="edge">
<title>2&#45;&gt;75</title>
<path fill="none" stroke="black" d="M14838.04,-1035.97C14943.14,-1025.33 15076.07,-1011.87 15182.88,-1001.05"/>
<polygon fill="black" stroke="black" points="15183.54,-1004.5 15193.13,-1000.01 15182.83,-997.54 15183.54,-1004.5"/>
</g>
<!-- 76 -->
<g id="node77" class="node">
<title>76</title>
<path fill="none" stroke="black" d="M16070,-1000C16070,-1000 15624,-1000 15624,-1000 15618,-1000 15612,-994 15612,-988 15612,-988 15612,-974 15612,-974 15612,-968 15618,-962 15624,-962 15624,-962 16070,-962 16070,-962 16076,-962 16082,-968 16082,-974 16082,-974 16082,-988 16082,-988 16082,-994 16076,-1000 16070,-1000"/>
<text text-anchor="middle" x="15847" y="-984.8" font-family="Times,serif" font-size="14.00">ComputePathToState#1.ComputePathToState.planner_id=PRMstarkConfigDefault</text>
<text text-anchor="middle" x="15847" y="-969.8" font-family="Times,serif" font-size="14.00">N=1, Q=0.427</text>
</g>
<!-- 2&#45;&gt;76 -->
<g id="edge76" class="edge">
<title>2&#45;&gt;76</title>
<path fill="none" stroke="black" d="M14862.19,-1043.35C15050.56,-1033.21 15339.55,-1017.09 15601.86,-1000"/>
<polygon fill="black" stroke="black" points="15602.21,-1003.49 15611.96,-999.34 15601.76,-996.5 15602.21,-1003.49"/>
</g>
<!-- 77 -->
<g id="node78" class="node">
<title>77</title>
<path fill="none" stroke="black" d="M16556,-1000C16556,-1000 16112,-1000 16112,-1000 16106,-1000 16100,-994 16100,-988 16100,-988 16100,-974 16100,-974 16100,-968 16106,-962 16112,-962 16112,-962 16556,-962 16556,-962 16562,-962 16568,-968 16568,-974 16568,-974 16568,-988 16568,-988 16568,-994 16562,-1000 16556,-1000"/>
<text text-anchor="middle" x="16334" y="-984.8" font-family="Times,serif" font-size="14.00">ComputePathToState#1.ComputePathToState.planner_id=KPIECEkConfigDefault</text>
<text text-anchor="middle" x="16334" y="-969.8" font-family="Times,serif" font-size="14.00">N=1, Q=0.920</text>
</g>
<!-- 2&#45;&gt;77 -->
<g id="edge77" class="edge">
<title>2&#45;&gt;77</title>
<path fill="none" stroke="black" d="M14862.13,-1048.68C15137.3,-1040.91 15645.43,-1024.72 16089.77,-1000.06"/>
<polygon fill="black" stroke="black" points="16090.14,-1003.54 16099.93,-999.49 16089.75,-996.55 16090.14,-1003.54"/>
</g>
<!-- 78 -->
<g id="node79" class="node">
<title>78</title>
<path fill="none" stroke="black" d="M17059.5,-1000C17059.5,-1000 16598.5,-1000 16598.5,-1000 16592.5,-1000 16586.5,-994 16586.5,-988 16586.5,-988 16586.5,-974 16586.5,-974 16586.5,-968 16592.5,-962 16598.5,-962 16598.5,-962 17059.5,-962 17059.5,-962 17065.5,-962 17071.5,-968 17071.5,-974 17071.5,-974 17071.5,-988 17071.5,-988 17071.5,-994 17065.5,-1000 17059.5,-1000"/>
<text text-anchor="middle" x="16829" y="-984.8" font-family="Times,serif" font-size="14.00">ComputePathToState#1.ComputePathToState.planner_id=LBKPIECEkConfigDefault</text>
<text text-anchor="middle" x="16829" y="-969.8" font-family="Times,serif" font-size="14.00">N=1, Q=0.426</text>
</g>
<!-- 2&#45;&gt;78 -->
<g id="edge78" class="edge">
<title>2&#45;&gt;78</title>
<path fill="none" stroke="black" d="M14862.29,-1051.17C15210.14,-1045.66 15944.31,-1031.25 16576.03,-1000.03"/>
<polygon fill="black" stroke="black" points="16576.44,-1003.52 16586.26,-999.53 16576.1,-996.53 16576.44,-1003.52"/>
</g>
<!-- 4 -->
<g id="node5" class="node">
<title>4</title>
<path fill="none" stroke="black" d="M12218,-926C12218,-926 11838,-926 11838,-926 11832,-926 11826,-920 11826,-914 11826,-914 11826,-900 11826,-900 11826,-894 11832,-888 11838,-888 11838,-888 12218,-888 12218,-888 12224,-888 12230,-894 12230,-900 12230,-900 12230,-914 12230,-914 12230,-920 12224,-926 12218,-926"/>
<text text-anchor="middle" x="12028" y="-910.8" font-family="Times,serif" font-size="14.00">YaskawaGripperCommand#1.YaskawaGripperCommand.position=0.0</text>
<text text-anchor="middle" x="12028" y="-895.8" font-family="Times,serif" font-size="14.00">N=274, Q=0.908</text>
</g>
<!-- 3&#45;&gt;4 -->
<g id="edge4" class="edge">
<title>3&#45;&gt;4</title>
<path fill="none" stroke="black" d="M12028,-961.83C12028,-954.13 12028,-944.97 12028,-936.42"/>
<polygon fill="black" stroke="black" points="12031.5,-936.41 12028,-926.41 12024.5,-936.41 12031.5,-936.41"/>
</g>
<!-- 5 -->
<g id="node6" class="node">
<title>5</title>
<path fill="none" stroke="black" d="M8314,-852C8314,-852 7898,-852 7898,-852 7892,-852 7886,-846 7886,-840 7886,-840 7886,-826 7886,-826 7886,-820 7892,-814 7898,-814 7898,-814 8314,-814 8314,-814 8320,-814 8326,-820 8326,-826 8326,-826 8326,-840 8326,-840 8326,-846 8320,-852 8314,-852"/>
<text text-anchor="middle" x="8106" y="-836.8" font-family="Times,serif" font-size="14.00">UpdatePose#1.UpdatePose.update_relative_pose=0.0;0.0;0.14;0.0;0.0;0.0;0.0</text>
<text text-anchor="middle" x="8106" y="-821.8" font-family="Times,serif" font-size="14.00">N=263, Q=0.909</text>
</g>
<!-- 4&#45;&gt;5 -->
<g id="edge5" class="edge">
<title>4&#45;&gt;5</title>
<path fill="none" stroke="black" d="M11825.74,-902.29C11160.13,-890.07 9040.36,-851.15 8336.01,-838.22"/>
<polygon fill="black" stroke="black" points="8336.06,-834.72 8326,-838.04 8335.94,-841.72 8336.06,-834.72"/>
</g>
<!-- 59 -->
<g id="node60" class="node">
<title>59</title>
<path fill="none" stroke="black" d="M11548,-852C11548,-852 11132,-852 11132,-852 11126,-852 11120,-846 11120,-840 11120,-840 11120,-826 11120,-826 11120,-820 11126,-814 11132,-814 11132,-814 11548,-814 11548,-814 11554,-814 11560,-820 11560,-826 11560,-826 11560,-840 11560,-840 11560,-846 11554,-852 11548,-852"/>
<text text-anchor="middle" x="11340" y="-836.8" font-family="Times,serif" font-size="14.00">UpdatePose#1.UpdatePose.update_relative_pose=0.0;0.0;0.13;0.0;0.0;0.0;0.0</text>
<text text-anchor="middle" x="11340" y="-821.8" font-family="Times,serif" font-size="14.00">N=6, Q=0.896</text>
</g>
<!-- 4&#45;&gt;59 -->
<g id="edge59" class="edge">
<title>4&#45;&gt;59</title>
<path fill="none" stroke="black" d="M11855.72,-887.97C11754.12,-877.34 11625.65,-863.89 11522.35,-853.08"/>
<polygon fill="black" stroke="black" points="11522.42,-849.57 11512.11,-852.01 11521.7,-856.53 11522.42,-849.57"/>
</g>
<!-- 65 -->
<g id="node66" class="node">
<title>65</title>
<path fill="none" stroke="black" d="M12006,-852C12006,-852 11590,-852 11590,-852 11584,-852 11578,-846 11578,-840 11578,-840 11578,-826 11578,-826 11578,-820 11584,-814 11590,-814 11590,-814 12006,-814 12006,-814 12012,-814 12018,-820 12018,-826 12018,-826 12018,-840 12018,-840 12018,-846 12012,-852 12006,-852"/>
<text text-anchor="middle" x="11798" y="-836.8" font-family="Times,serif" font-size="14.00">UpdatePose#1.UpdatePose.update_relative_pose=0.0;0.0;0.12;0.0;0.0;0.0;0.0</text>
<text text-anchor="middle" x="11798" y="-821.8" font-family="Times,serif" font-size="14.00">N=1, Q=0.903</text>
</g>
<!-- 4&#45;&gt;65 -->
<g id="edge65" class="edge">
<title>4&#45;&gt;65</title>
<path fill="none" stroke="black" d="M11970.26,-887.92C11938.41,-877.95 11898.69,-865.52 11865.42,-855.1"/>
<polygon fill="black" stroke="black" points="11866.35,-851.73 11855.77,-852.08 11864.26,-858.41 11866.35,-851.73"/>
</g>
<!-- 66 -->
<g id="node67" class="node">
<title>66</title>
<path fill="none" stroke="black" d="M12470,-852C12470,-852 12048,-852 12048,-852 12042,-852 12036,-846 12036,-840 12036,-840 12036,-826 12036,-826 12036,-820 12042,-814 12048,-814 12048,-814 12470,-814 12470,-814 12476,-814 12482,-820 12482,-826 12482,-826 12482,-840 12482,-840 12482,-846 12476,-852 12470,-852"/>
<text text-anchor="middle" x="12259" y="-836.8" font-family="Times,serif" font-size="14.00">UpdatePose#1.UpdatePose.update_relative_pose=0.0;0.0;0.115;0.0;0.0;0.0;0.0</text>
<text text-anchor="middle" x="12259" y="-821.8" font-family="Times,serif" font-size="14.00">N=1, Q=0.911</text>
</g>
<!-- 4&#45;&gt;66 -->
<g id="edge66" class="edge">
<title>4&#45;&gt;66</title>
<path fill="none" stroke="black" d="M12085.99,-887.92C12117.98,-877.95 12157.88,-865.52 12191.29,-855.1"/>
<polygon fill="black" stroke="black" points="12192.48,-858.4 12200.98,-852.08 12190.39,-851.72 12192.48,-858.4"/>
</g>
<!-- 67 -->
<g id="node68" class="node">
<title>67</title>
<path fill="none" stroke="black" d="M12934,-852C12934,-852 12512,-852 12512,-852 12506,-852 12500,-846 12500,-840 12500,-840 12500,-826 12500,-826 12500,-820 12506,-814 12512,-814 12512,-814 12934,-814 12934,-814 12940,-814 12946,-820 12946,-826 12946,-826 12946,-840 12946,-840 12946,-846 12940,-852 12934,-852"/>
<text text-anchor="middle" x="12723" y="-836.8" font-family="Times,serif" font-size="14.00">UpdatePose#1.UpdatePose.update_relative_pose=0.0;0.0;0.125;0.0;0.0;0.0;0.0</text>
<text text-anchor="middle" x="12723" y="-821.8" font-family="Times,serif" font-size="14.00">N=1, Q=0.914</text>
</g>
<!-- 4&#45;&gt;67 -->
<g id="edge67" class="edge">
<title>4&#45;&gt;67</title>
<path fill="none" stroke="black" d="M12202.03,-887.97C12304.77,-877.33 12434.71,-863.87 12539.11,-853.05"/>
<polygon fill="black" stroke="black" points="12539.55,-856.52 12549.13,-852.01 12538.83,-849.56 12539.55,-856.52"/>
</g>
<!-- 68 -->
<g id="node69" class="node">
<title>68</title>
<path fill="none" stroke="black" d="M13392,-852C13392,-852 12976,-852 12976,-852 12970,-852 12964,-846 12964,-840 12964,-840 12964,-826 12964,-826 12964,-820 12970,-814 12976,-814 12976,-814 13392,-814 13392,-814 13398,-814 13404,-820 13404,-826 13404,-826 13404,-840 13404,-840 13404,-846 13398,-852 13392,-852"/>
<text text-anchor="middle" x="13184" y="-836.8" font-family="Times,serif" font-size="14.00">UpdatePose#1.UpdatePose.update_relative_pose=0.0;0.0;0.15;0.0;0.0;0.0;0.0</text>
<text text-anchor="middle" x="13184" y="-821.8" font-family="Times,serif" font-size="14.00">N=1, Q=0.885</text>
</g>
<!-- 4&#45;&gt;68 -->
<g id="edge68" class="edge">
<title>4&#45;&gt;68</title>
<path fill="none" stroke="black" d="M12230.16,-895.41C12415.52,-885.41 12697.94,-869.5 12953.48,-852.1"/>
<polygon fill="black" stroke="black" points="12953.97,-855.57 12963.71,-851.4 12953.5,-848.59 12953.97,-855.57"/>
</g>
<!-- 6 -->
<g id="node7" class="node">
<title>6</title>
<path fill="none" stroke="black" d="M6011,-778C6011,-778 5283,-778 5283,-778 5277,-778 5271,-772 5271,-766 5271,-766 5271,-752 5271,-752 5271,-746 5277,-740 5283,-740 5283,-740 6011,-740 6011,-740 6017,-740 6023,-746 6023,-752 6023,-752 6023,-766 6023,-766 6023,-772 6017,-778 6011,-778"/>
<text text-anchor="middle" x="5647" y="-762.8" font-family="Times,serif" font-size="14.00">SetPathConstraints#1.SetPathConstraints.joint_constraints=joint_1_s,0.0,0.1,0.1,1.0;joint_3_s,0.0,0.1,0.1,1.0;joint_5_s,0.0,0.1,0.1,1.0</text>
<text text-anchor="middle" x="5647" y="-747.8" font-family="Times,serif" font-size="14.00">N=253, Q=0.912</text>
</g>
<!-- 5&#45;&gt;6 -->
<g id="edge6" class="edge">
<title>5&#45;&gt;6</title>
<path fill="none" stroke="black" d="M7885.71,-827.76C7508.68,-820.17 6715.16,-802.75 6033.22,-778.04"/>
<polygon fill="black" stroke="black" points="6033.31,-774.54 6023.19,-777.68 6033.05,-781.54 6033.31,-774.54"/>
</g>
<!-- 50 -->
<g id="node51" class="node">
<title>50</title>
<path fill="none" stroke="black" d="M6505,-778C6505,-778 6053,-778 6053,-778 6047,-778 6041,-772 6041,-766 6041,-766 6041,-752 6041,-752 6041,-746 6047,-740 6053,-740 6053,-740 6505,-740 6505,-740 6511,-740 6517,-746 6517,-752 6517,-752 6517,-766 6517,-766 6517,-772 6511,-778 6505,-778"/>
<text text-anchor="middle" x="6279" y="-762.8" font-family="Times,serif" font-size="14.00">SetPathConstraints#1.SetPathConstraints.joint_constraints=joint_3_s,0.0,0.1,0.1,1.0</text>
<text text-anchor="middle" x="6279" y="-747.8" font-family="Times,serif" font-size="14.00">N=2, Q=0.897</text>
</g>
<!-- 5&#45;&gt;50 -->
<g id="edge50" class="edge">
<title>5&#45;&gt;50</title>
<path fill="none" stroke="black" d="M7885.74,-827.15C7582.4,-819.87 7018.71,-804.16 6527.39,-778.06"/>
<polygon fill="black" stroke="black" points="6527.42,-774.56 6517.25,-777.52 6527.05,-781.55 6527.42,-774.56"/>
</g>
<!-- 52 -->
<g id="node53" class="node">
<title>52</title>
<path fill="none" stroke="black" d="M7137,-778C7137,-778 6547,-778 6547,-778 6541,-778 6535,-772 6535,-766 6535,-766 6535,-752 6535,-752 6535,-746 6541,-740 6547,-740 6547,-740 7137,-740 7137,-740 7143,-740 7149,-746 7149,-752 7149,-752 7149,-766 7149,-766 7149,-772 7143,-778 7137,-778"/>
<text text-anchor="middle" x="6842" y="-762.8" font-family="Times,serif" font-size="14.00">SetPathConstraints#1.SetPathConstraints.joint_constraints=joint_1_s,0.0,0.1,0.1,1.0;joint_3_s,0.0,0.1,0.1,1.0</text>
<text text-anchor="middle" x="6842" y="-747.8" font-family="Times,serif" font-size="14.00">N=2, Q=0.917</text>
</g>
<!-- 5&#45;&gt;52 -->
<g id="edge52" class="edge">
<title>5&#45;&gt;52</title>
<path fill="none" stroke="black" d="M7885.83,-819.46C7684.93,-808.02 7385.7,-790.97 7159.06,-778.06"/>
<polygon fill="black" stroke="black" points="7159.18,-774.56 7149,-777.49 7158.78,-781.55 7159.18,-774.56"/>
</g>
<!-- 54 -->
<g id="node55" class="node">
<title>54</title>
<path fill="none" stroke="black" d="M7769,-778C7769,-778 7179,-778 7179,-778 7173,-778 7167,-772 7167,-766 7167,-766 7167,-752 7167,-752 7167,-746 7173,-740 7179,-740 7179,-740 7769,-740 7769,-740 7775,-740 7781,-746 7781,-752 7781,-752 7781,-766 7781,-766 7781,-772 7775,-778 7769,-778"/>
<text text-anchor="middle" x="7474" y="-762.8" font-family="Times,serif" font-size="14.00">SetPathConstraints#1.SetPathConstraints.joint_constraints=joint_3_s,0.0,0.1,0.1,1.0;joint_6_s,0.0,0.1,0.1,1.0</text>
<text text-anchor="middle" x="7474" y="-747.8" font-family="Times,serif" font-size="14.00">N=1, Q=0.916</text>
</g>
<!-- 5&#45;&gt;54 -->
<g id="edge54" class="edge">
<title>5&#45;&gt;54</title>
<path fill="none" stroke="black" d="M7947.74,-813.97C7854.6,-803.36 7736.88,-789.95 7642.08,-779.15"/>
<polygon fill="black" stroke="black" points="7642.44,-775.67 7632.11,-778.01 7641.64,-782.62 7642.44,-775.67"/>
</g>
<!-- 55 -->
<g id="node56" class="node">
<title>55</title>
<path fill="none" stroke="black" d="M8401,-778C8401,-778 7811,-778 7811,-778 7805,-778 7799,-772 7799,-766 7799,-766 7799,-752 7799,-752 7799,-746 7805,-740 7811,-740 7811,-740 8401,-740 8401,-740 8407,-740 8413,-746 8413,-752 8413,-752 8413,-766 8413,-766 8413,-772 8407,-778 8401,-778"/>
<text text-anchor="middle" x="8106" y="-762.8" font-family="Times,serif" font-size="14.00">SetPathConstraints#1.SetPathConstraints.joint_constraints=joint_3_s,0.0,0.1,0.1,1.0;joint_5_s,0.0,0.1,0.1,1.0</text>
<text text-anchor="middle" x="8106" y="-747.8" font-family="Times,serif" font-size="14.00">N=1, Q=0.000</text>
</g>
<!-- 5&#45;&gt;55 -->
<g id="edge55" class="edge">
<title>5&#45;&gt;55</title>
<path fill="none" stroke="black" d="M8106,-813.83C8106,-806.13 8106,-796.97 8106,-788.42"/>
<polygon fill="black" stroke="black" points="8109.5,-788.41 8106,-778.41 8102.5,-788.41 8109.5,-788.41"/>
</g>
<!-- 56 -->
<g id="node57" class="node">
<title>56</title>
<path fill="none" stroke="black" d="M8895,-778C8895,-778 8443,-778 8443,-778 8437,-778 8431,-772 8431,-766 8431,-766 8431,-752 8431,-752 8431,-746 8437,-740 8443,-740 8443,-740 8895,-740 8895,-740 8901,-740 8907,-746 8907,-752 8907,-752 8907,-766 8907,-766 8907,-772 8901,-778 8895,-778"/>
<text text-anchor="middle" x="8669" y="-762.8" font-family="Times,serif" font-size="14.00">SetPathConstraints#1.SetPathConstraints.joint_constraints=joint_5_s,0.0,0.1,0.1,1.0</text>
<text text-anchor="middle" x="8669" y="-747.8" font-family="Times,serif" font-size="14.00">N=1, Q=0.917</text>
</g>
<!-- 5&#45;&gt;56 -->
<g id="edge56" class="edge">
<title>5&#45;&gt;56</title>
<path fill="none" stroke="black" d="M8246.98,-813.97C8329.45,-803.42 8433.57,-790.11 8517.75,-779.34"/>
<polygon fill="black" stroke="black" points="8518.44,-782.78 8527.91,-778.04 8517.55,-775.84 8518.44,-782.78"/>
</g>
<!-- 57 -->
<g id="node58" class="node">
<title>57</title>
<path fill="none" stroke="black" d="M9389,-778C9389,-778 8937,-778 8937,-778 8931,-778 8925,-772 8925,-766 8925,-766 8925,-752 8925,-752 8925,-746 8931,-740 8937,-740 8937,-740 9389,-740 9389,-740 9395,-740 9401,-746 9401,-752 9401,-752 9401,-766 9401,-766 9401,-772 9395,-778 9389,-778"/>
<text text-anchor="middle" x="9163" y="-762.8" font-family="Times,serif" font-size="14.00">SetPathConstraints#1.SetPathConstraints.joint_constraints=joint_1_s,0.0,0.1,0.1,1.0</text>
<text text-anchor="middle" x="9163" y="-747.8" font-family="Times,serif" font-size="14.00">N=1, Q=0.893</text>
</g>
<!-- 5&#45;&gt;57 -->
<g id="edge57" class="edge">
<title>5&#45;&gt;57</title>
<path fill="none" stroke="black" d="M8326.05,-817.7C8486.35,-807.19 8709.04,-792.41 8914.65,-778.09"/>
<polygon fill="black" stroke="black" points="8915.01,-781.58 8924.74,-777.39 8914.52,-774.59 8915.01,-781.58"/>
</g>
<!-- 58 -->
<g id="node59" class="node">
<title>58</title>
<path fill="none" stroke="black" d="M10021,-778C10021,-778 9431,-778 9431,-778 9425,-778 9419,-772 9419,-766 9419,-766 9419,-752 9419,-752 9419,-746 9425,-740 9431,-740 9431,-740 10021,-740 10021,-740 10027,-740 10033,-746 10033,-752 10033,-752 10033,-766 10033,-766 10033,-772 10027,-778 10021,-778"/>
<text text-anchor="middle" x="9726" y="-762.8" font-family="Times,serif" font-size="14.00">SetPathConstraints#1.SetPathConstraints.joint_constraints=joint_1_s,0.0,0.1,0.1,1.0;joint_5_s,0.0,0.1,0.1,1.0</text>
<text text-anchor="middle" x="9726" y="-747.8" font-family="Times,serif" font-size="14.00">N=1, Q=0.915</text>
</g>
<!-- 5&#45;&gt;58 -->
<g id="edge58" class="edge">
<title>5&#45;&gt;58</title>
<path fill="none" stroke="black" d="M8326.1,-823.93C8583.16,-814.26 9021.52,-797.03 9408.69,-778.06"/>
<polygon fill="black" stroke="black" points="9408.87,-781.56 9418.69,-777.57 9408.53,-774.56 9408.87,-781.56"/>
</g>
<!-- 7 -->
<g id="node8" class="node">
<title>7</title>
<path fill="none" stroke="black" d="M5487,-704C5487,-704 4967,-704 4967,-704 4961,-704 4955,-698 4955,-692 4955,-692 4955,-678 4955,-678 4955,-672 4961,-666 4967,-666 4967,-666 5487,-666 5487,-666 5493,-666 5499,-672 5499,-678 5499,-678 5499,-692 5499,-692 5499,-698 5493,-704 5487,-704"/>
<text text-anchor="middle" x="5227" y="-688.8" font-family="Times,serif" font-size="14.00">ComputePathToPose#1.ComputePathToPose.planning_pipeline=pilz_industrial_motion_planner</text>
<text text-anchor="middle" x="5227" y="-673.8" font-family="Times,serif" font-size="14.00">N=251, Q=0.915</text>
</g>
<!-- 6&#45;&gt;7 -->
<g id="edge7" class="edge">
<title>6&#45;&gt;7</title>
<path fill="none" stroke="black" d="M5541.83,-739.97C5481.05,-729.55 5404.53,-716.43 5342.14,-705.74"/>
<polygon fill="black" stroke="black" points="5342.7,-702.28 5332.25,-704.04 5341.52,-709.18 5342.7,-702.28"/>
</g>
<!-- 49 -->
<g id="node50" class="node">
<title>49</title>
<path fill="none" stroke="black" d="M5906.5,-704C5906.5,-704 5529.5,-704 5529.5,-704 5523.5,-704 5517.5,-698 5517.5,-692 5517.5,-692 5517.5,-678 5517.5,-678 5517.5,-672 5523.5,-666 5529.5,-666 5529.5,-666 5906.5,-666 5906.5,-666 5912.5,-666 5918.5,-672 5918.5,-678 5918.5,-678 5918.5,-692 5918.5,-692 5918.5,-698 5912.5,-704 5906.5,-704"/>
<text text-anchor="middle" x="5718" y="-688.8" font-family="Times,serif" font-size="14.00">ComputePathToPose#1.ComputePathToPose.planning_pipeline=ompl</text>
<text text-anchor="middle" x="5718" y="-673.8" font-family="Times,serif" font-size="14.00">N=1, Q=0.300</text>
</g>
<!-- 6&#45;&gt;49 -->
<g id="edge49" class="edge">
<title>6&#45;&gt;49</title>
<path fill="none" stroke="black" d="M5664.92,-739.83C5673.34,-731.28 5683.54,-720.94 5692.74,-711.62"/>
<polygon fill="black" stroke="black" points="5695.31,-713.99 5699.84,-704.41 5690.33,-709.08 5695.31,-713.99"/>
</g>
<!-- 8 -->
<g id="node9" class="node">
<title>8</title>
<path fill="none" stroke="black" d="M5393,-630C5393,-630 5061,-630 5061,-630 5055,-630 5049,-624 5049,-618 5049,-618 5049,-604 5049,-604 5049,-598 5055,-592 5061,-592 5061,-592 5393,-592 5393,-592 5399,-592 5405,-598 5405,-604 5405,-604 5405,-618 5405,-618 5405,-624 5399,-630 5393,-630"/>
<text text-anchor="middle" x="5227" y="-614.8" font-family="Times,serif" font-size="14.00">ComputePathToPose#1.ComputePathToPose.planner_id=PTP</text>
<text text-anchor="middle" x="5227" y="-599.8" font-family="Times,serif" font-size="14.00">N=250, Q=0.915</text>
</g>
<!-- 7&#45;&gt;8 -->
<g id="edge8" class="edge">
<title>7&#45;&gt;8</title>
<path fill="none" stroke="black" d="M5227,-665.83C5227,-658.13 5227,-648.97 5227,-640.42"/>
<polygon fill="black" stroke="black" points="5230.5,-640.41 5227,-630.41 5223.5,-640.41 5230.5,-640.41"/>
</g>
<!-- 9 -->
<g id="node10" class="node">
<title>9</title>
<path fill="none" stroke="black" d="M5423.5,-556C5423.5,-556 5030.5,-556 5030.5,-556 5024.5,-556 5018.5,-550 5018.5,-544 5018.5,-544 5018.5,-530 5018.5,-530 5018.5,-524 5024.5,-518 5030.5,-518 5030.5,-518 5423.5,-518 5423.5,-518 5429.5,-518 5435.5,-524 5435.5,-530 5435.5,-530 5435.5,-544 5435.5,-544 5435.5,-550 5429.5,-556 5423.5,-556"/>
<text text-anchor="middle" x="5227" y="-540.8" font-family="Times,serif" font-size="14.00">YaskawaGripperCommand#2.YaskawaGripperCommand.position=0.365</text>
<text text-anchor="middle" x="5227" y="-525.8" font-family="Times,serif" font-size="14.00">N=249, Q=0.915</text>
</g>
<!-- 8&#45;&gt;9 -->
<g id="edge9" class="edge">
<title>8&#45;&gt;9</title>
<path fill="none" stroke="black" d="M5227,-591.83C5227,-584.13 5227,-574.97 5227,-566.42"/>
<polygon fill="black" stroke="black" points="5230.5,-566.41 5227,-556.41 5223.5,-566.41 5230.5,-566.41"/>
</g>
<!-- 10 -->
<g id="node11" class="node">
<title>10</title>
<path fill="none" stroke="black" d="M5456,-482C5456,-482 4998,-482 4998,-482 4992,-482 4986,-476 4986,-470 4986,-470 4986,-456 4986,-456 4986,-450 4992,-444 4998,-444 4998,-444 5456,-444 5456,-444 5462,-444 5468,-450 5468,-456 5468,-456 5468,-470 5468,-470 5468,-476 5462,-482 5456,-482"/>
<text text-anchor="middle" x="5227" y="-466.8" font-family="Times,serif" font-size="14.00">ComputePathToState#2.ComputePathToState.named_state=gp7_detect_arucomarker</text>
<text text-anchor="middle" x="5227" y="-451.8" font-family="Times,serif" font-size="14.00">N=248, Q=0.915</text>
</g>
<!-- 9&#45;&gt;10 -->
<g id="edge10" class="edge">
<title>9&#45;&gt;10</title>
<path fill="none" stroke="black" d="M5227,-517.83C5227,-510.13 5227,-500.97 5227,-492.42"/>
<polygon fill="black" stroke="black" points="5230.5,-492.41 5227,-482.41 5223.5,-492.41 5230.5,-492.41"/>
</g>
<!-- 11 -->
<g id="node12" class="node">
<title>11</title>
<path fill="none" stroke="black" d="M5170,-408C5170,-408 4790,-408 4790,-408 4784,-408 4778,-402 4778,-396 4778,-396 4778,-382 4778,-382 4778,-376 4784,-370 4790,-370 4790,-370 5170,-370 5170,-370 5176,-370 5182,-376 5182,-382 5182,-382 5182,-396 5182,-396 5182,-402 5176,-408 5170,-408"/>
<text text-anchor="middle" x="4980" y="-392.8" font-family="Times,serif" font-size="14.00">ComputePathToState#2.ComputePathToState.planning_pipeline=ompl</text>
<text text-anchor="middle" x="4980" y="-377.8" font-family="Times,serif" font-size="14.00">N=214, Q=0.915</text>
</g>
<!-- 10&#45;&gt;11 -->
<g id="edge11" class="edge">
<title>10&#45;&gt;11</title>
<path fill="none" stroke="black" d="M5164.99,-443.92C5130.64,-433.91 5087.76,-421.41 5051.94,-410.97"/>
<polygon fill="black" stroke="black" points="5052.62,-407.52 5042.04,-408.08 5050.66,-414.24 5052.62,-407.52"/>
</g>
<!-- 35 -->
<g id="node36" class="node">
<title>35</title>
<path fill="none" stroke="black" d="M6780.5,-408C6780.5,-408 6257.5,-408 6257.5,-408 6251.5,-408 6245.5,-402 6245.5,-396 6245.5,-396 6245.5,-382 6245.5,-382 6245.5,-376 6251.5,-370 6257.5,-370 6257.5,-370 6780.5,-370 6780.5,-370 6786.5,-370 6792.5,-376 6792.5,-382 6792.5,-382 6792.5,-396 6792.5,-396 6792.5,-402 6786.5,-408 6780.5,-408"/>
<text text-anchor="middle" x="6519" y="-392.8" font-family="Times,serif" font-size="14.00">ComputePathToState#2.ComputePathToState.planning_pipeline=pilz_industrial_motion_planner</text>
<text text-anchor="middle" x="6519" y="-377.8" font-family="Times,serif" font-size="14.00">N=33, Q=0.915</text>
</g>
<!-- 10&#45;&gt;35 -->
<g id="edge35" class="edge">
<title>10&#45;&gt;35</title>
<path fill="none" stroke="black" d="M5468.12,-448.56C5685.51,-436.45 6005.38,-418.62 6235.06,-405.82"/>
<polygon fill="black" stroke="black" points="6235.45,-409.31 6245.24,-405.26 6235.06,-402.32 6235.45,-409.31"/>
</g>
<!-- 12 -->
<g id="node13" class="node">
<title>12</title>
<path fill="none" stroke="black" d="M2563,-334C2563,-334 2095,-334 2095,-334 2089,-334 2083,-328 2083,-322 2083,-322 2083,-308 2083,-308 2083,-302 2089,-296 2095,-296 2095,-296 2563,-296 2563,-296 2569,-296 2575,-302 2575,-308 2575,-308 2575,-322 2575,-322 2575,-328 2569,-334 2563,-334"/>
<text text-anchor="middle" x="2329" y="-318.8" font-family="Times,serif" font-size="14.00">ComputePathToState#2.ComputePathToState.planner_id=RRTConnectkConfigDefault</text>
<text text-anchor="middle" x="2329" y="-303.8" font-family="Times,serif" font-size="14.00">N=203, Q=0.917</text>
</g>
<!-- 11&#45;&gt;12 -->
<g id="edge12" class="edge">
<title>11&#45;&gt;12</title>
<path fill="none" stroke="black" d="M4777.94,-386.71C4367.1,-383.38 3404.59,-371.91 2585.54,-334.06"/>
<polygon fill="black" stroke="black" points="2585.46,-330.55 2575.3,-333.58 2585.13,-337.54 2585.46,-330.55"/>
</g>
<!-- 25 -->
<g id="node26" class="node">
<title>25</title>
<path fill="none" stroke="black" d="M3049,-334C3049,-334 2605,-334 2605,-334 2599,-334 2593,-328 2593,-322 2593,-322 2593,-308 2593,-308 2593,-302 2599,-296 2605,-296 2605,-296 3049,-296 3049,-296 3055,-296 3061,-302 3061,-308 3061,-308 3061,-322 3061,-322 3061,-328 3055,-334 3049,-334"/>
<text text-anchor="middle" x="2827" y="-318.8" font-family="Times,serif" font-size="14.00">ComputePathToState#2.ComputePathToState.planner_id=KPIECEkConfigDefault</text>
<text text-anchor="middle" x="2827" y="-303.8" font-family="Times,serif" font-size="14.00">N=1, Q=0.919</text>
</g>
<!-- 11&#45;&gt;25 -->
<g id="edge25" class="edge">
<title>11&#45;&gt;25</title>
<path fill="none" stroke="black" d="M4777.75,-385.32C4430.87,-380.04 3699.92,-365.97 3071.25,-334.05"/>
<polygon fill="black" stroke="black" points="3071.24,-330.54 3061.07,-333.53 3070.88,-337.54 3071.24,-330.54"/>
</g>
<!-- 26 -->
<g id="node27" class="node">
<title>26</title>
<path fill="none" stroke="black" d="M3522.5,-334C3522.5,-334 3091.5,-334 3091.5,-334 3085.5,-334 3079.5,-328 3079.5,-322 3079.5,-322 3079.5,-308 3079.5,-308 3079.5,-302 3085.5,-296 3091.5,-296 3091.5,-296 3522.5,-296 3522.5,-296 3528.5,-296 3534.5,-302 3534.5,-308 3534.5,-308 3534.5,-322 3534.5,-322 3534.5,-328 3528.5,-334 3522.5,-334"/>
<text text-anchor="middle" x="3307" y="-318.8" font-family="Times,serif" font-size="14.00">ComputePathToState#2.ComputePathToState.planner_id=TRRTkConfigDefault</text>
<text text-anchor="middle" x="3307" y="-303.8" font-family="Times,serif" font-size="14.00">N=1, Q=0.916</text>
</g>
<!-- 11&#45;&gt;26 -->
<g id="edge26" class="edge">
<title>11&#45;&gt;26</title>
<path fill="none" stroke="black" d="M4777.9,-382.86C4501.78,-375.29 3990.89,-359.29 3544.83,-334.09"/>
<polygon fill="black" stroke="black" points="3544.82,-330.59 3534.64,-333.51 3544.43,-337.58 3544.82,-330.59"/>
</g>
<!-- 27 -->
<g id="node28" class="node">
<title>27</title>
<path fill="none" stroke="black" d="M4006,-334C4006,-334 3564,-334 3564,-334 3558,-334 3552,-328 3552,-322 3552,-322 3552,-308 3552,-308 3552,-302 3558,-296 3564,-296 3564,-296 4006,-296 4006,-296 4012,-296 4018,-302 4018,-308 4018,-308 4018,-322 4018,-322 4018,-328 4012,-334 4006,-334"/>
<text text-anchor="middle" x="3785" y="-318.8" font-family="Times,serif" font-size="14.00">ComputePathToState#2.ComputePathToState.planner_id=RRTstarkConfigDefault</text>
<text text-anchor="middle" x="3785" y="-303.8" font-family="Times,serif" font-size="14.00">N=1, Q=0.917</text>
</g>
<!-- 11&#45;&gt;27 -->
<g id="edge27" class="edge">
<title>11&#45;&gt;27</title>
<path fill="none" stroke="black" d="M4777.76,-377.58C4587.25,-367.52 4293.57,-351.38 4028.33,-334.08"/>
<polygon fill="black" stroke="black" points="4028.32,-330.57 4018.11,-333.41 4027.87,-337.56 4028.32,-330.57"/>
</g>
<!-- 28 -->
<g id="node29" class="node">
<title>28</title>
<path fill="none" stroke="black" d="M4494,-334C4494,-334 4048,-334 4048,-334 4042,-334 4036,-328 4036,-322 4036,-322 4036,-308 4036,-308 4036,-302 4042,-296 4048,-296 4048,-296 4494,-296 4494,-296 4500,-296 4506,-302 4506,-308 4506,-308 4506,-322 4506,-322 4506,-328 4500,-334 4494,-334"/>
<text text-anchor="middle" x="4271" y="-318.8" font-family="Times,serif" font-size="14.00">ComputePathToState#2.ComputePathToState.planner_id=PRMstarkConfigDefault</text>
<text text-anchor="middle" x="4271" y="-303.8" font-family="Times,serif" font-size="14.00">N=1, Q=0.917</text>
</g>
<!-- 11&#45;&gt;28 -->
<g id="edge28" class="edge">
<title>11&#45;&gt;28</title>
<path fill="none" stroke="black" d="M4802.46,-369.97C4697.66,-359.33 4565.1,-345.87 4458.59,-335.05"/>
<polygon fill="black" stroke="black" points="4458.67,-331.54 4448.37,-334.01 4457.96,-338.5 4458.67,-331.54"/>
</g>
<!-- 29 -->
<g id="node30" class="node">
<title>29</title>
<path fill="none" stroke="black" d="M4959.5,-334C4959.5,-334 4536.5,-334 4536.5,-334 4530.5,-334 4524.5,-328 4524.5,-322 4524.5,-322 4524.5,-308 4524.5,-308 4524.5,-302 4530.5,-296 4536.5,-296 4536.5,-296 4959.5,-296 4959.5,-296 4965.5,-296 4971.5,-302 4971.5,-308 4971.5,-308 4971.5,-322 4971.5,-322 4971.5,-328 4965.5,-334 4959.5,-334"/>
<text text-anchor="middle" x="4748" y="-318.8" font-family="Times,serif" font-size="14.00">ComputePathToState#2.ComputePathToState.planner_id=RRTkConfigDefault</text>
<text text-anchor="middle" x="4748" y="-303.8" font-family="Times,serif" font-size="14.00">N=1, Q=0.917</text>
</g>
<!-- 11&#45;&gt;29 -->
<g id="edge29" class="edge">
<title>11&#45;&gt;29</title>
<path fill="none" stroke="black" d="M4921.76,-369.92C4889.63,-359.95 4849.56,-347.52 4816,-337.1"/>
<polygon fill="black" stroke="black" points="4816.86,-333.7 4806.27,-334.08 4814.78,-340.39 4816.86,-333.7"/>
</g>
<!-- 30 -->
<g id="node31" class="node">
<title>30</title>
<path fill="none" stroke="black" d="M5422.5,-334C5422.5,-334 5001.5,-334 5001.5,-334 4995.5,-334 4989.5,-328 4989.5,-322 4989.5,-322 4989.5,-308 4989.5,-308 4989.5,-302 4995.5,-296 5001.5,-296 5001.5,-296 5422.5,-296 5422.5,-296 5428.5,-296 5434.5,-302 5434.5,-308 5434.5,-308 5434.5,-322 5434.5,-322 5434.5,-328 5428.5,-334 5422.5,-334"/>
<text text-anchor="middle" x="5212" y="-318.8" font-family="Times,serif" font-size="14.00">ComputePathToState#2.ComputePathToState.planner_id=ESTkConfigDefault</text>
<text text-anchor="middle" x="5212" y="-303.8" font-family="Times,serif" font-size="14.00">N=1, Q=0.915</text>
</g>
<!-- 11&#45;&gt;30 -->
<g id="edge30" class="edge">
<title>11&#45;&gt;30</title>
<path fill="none" stroke="black" d="M5038.24,-369.92C5070.37,-359.95 5110.44,-347.52 5144,-337.1"/>
<polygon fill="black" stroke="black" points="5145.22,-340.39 5153.73,-334.08 5143.14,-333.7 5145.22,-340.39"/>
</g>
<!-- 31 -->
<g id="node32" class="node">
<title>31</title>
<path fill="none" stroke="black" d="M5887,-334C5887,-334 5465,-334 5465,-334 5459,-334 5453,-328 5453,-322 5453,-322 5453,-308 5453,-308 5453,-302 5459,-296 5465,-296 5465,-296 5887,-296 5887,-296 5893,-296 5899,-302 5899,-308 5899,-308 5899,-322 5899,-322 5899,-328 5893,-334 5887,-334"/>
<text text-anchor="middle" x="5676" y="-318.8" font-family="Times,serif" font-size="14.00">ComputePathToState#2.ComputePathToState.planner_id=SBLkConfigDefault</text>
<text text-anchor="middle" x="5676" y="-303.8" font-family="Times,serif" font-size="14.00">N=1, Q=0.915</text>
</g>
<!-- 11&#45;&gt;31 -->
<g id="edge31" class="edge">
<title>11&#45;&gt;31</title>
<path fill="none" stroke="black" d="M5154.28,-369.97C5257.16,-359.33 5387.29,-345.87 5491.85,-335.05"/>
<polygon fill="black" stroke="black" points="5492.3,-338.52 5501.88,-334.01 5491.58,-331.56 5492.3,-338.52"/>
</g>
<!-- 32 -->
<g id="node33" class="node">
<title>32</title>
<path fill="none" stroke="black" d="M6390.5,-334C6390.5,-334 5929.5,-334 5929.5,-334 5923.5,-334 5917.5,-328 5917.5,-322 5917.5,-322 5917.5,-308 5917.5,-308 5917.5,-302 5923.5,-296 5929.5,-296 5929.5,-296 6390.5,-296 6390.5,-296 6396.5,-296 6402.5,-302 6402.5,-308 6402.5,-308 6402.5,-322 6402.5,-322 6402.5,-328 6396.5,-334 6390.5,-334"/>
<text text-anchor="middle" x="6160" y="-318.8" font-family="Times,serif" font-size="14.00">ComputePathToState#2.ComputePathToState.planner_id=LBKPIECEkConfigDefault</text>
<text text-anchor="middle" x="6160" y="-303.8" font-family="Times,serif" font-size="14.00">N=1, Q=0.916</text>
</g>
<!-- 11&#45;&gt;32 -->
<g id="edge32" class="edge">
<title>11&#45;&gt;32</title>
<path fill="none" stroke="black" d="M5182.35,-377C5367.89,-366.72 5650.61,-350.62 5906.99,-334.06"/>
<polygon fill="black" stroke="black" points="5907.5,-337.54 5917.25,-333.4 5907.05,-330.55 5907.5,-337.54"/>
</g>
<!-- 33 -->
<g id="node34" class="node">
<title>33</title>
<path fill="none" stroke="black" d="M6859,-334C6859,-334 6433,-334 6433,-334 6427,-334 6421,-328 6421,-322 6421,-322 6421,-308 6421,-308 6421,-302 6427,-296 6433,-296 6433,-296 6859,-296 6859,-296 6865,-296 6871,-302 6871,-308 6871,-308 6871,-322 6871,-322 6871,-328 6865,-334 6859,-334"/>
<text text-anchor="middle" x="6646" y="-318.8" font-family="Times,serif" font-size="14.00">ComputePathToState#2.ComputePathToState.planner_id=PRMkConfigDefault</text>
<text text-anchor="middle" x="6646" y="-303.8" font-family="Times,serif" font-size="14.00">N=1, Q=0.917</text>
</g>
<!-- 11&#45;&gt;33 -->
<g id="edge33" class="edge">
<title>11&#45;&gt;33</title>
<path fill="none" stroke="black" d="M5182.14,-382.84C5457.32,-375.25 5965.46,-359.26 6410.7,-334"/>
<polygon fill="black" stroke="black" points="6411.09,-337.49 6420.88,-333.42 6410.69,-330.5 6411.09,-337.49"/>
</g>
<!-- 34 -->
<g id="node35" class="node">
<title>34</title>
<path fill="none" stroke="black" d="M7354.5,-334C7354.5,-334 6901.5,-334 6901.5,-334 6895.5,-334 6889.5,-328 6889.5,-322 6889.5,-322 6889.5,-308 6889.5,-308 6889.5,-302 6895.5,-296 6901.5,-296 6901.5,-296 7354.5,-296 7354.5,-296 7360.5,-296 7366.5,-302 7366.5,-308 7366.5,-308 7366.5,-322 7366.5,-322 7366.5,-328 7360.5,-334 7354.5,-334"/>
<text text-anchor="middle" x="7128" y="-318.8" font-family="Times,serif" font-size="14.00">ComputePathToState#2.ComputePathToState.planner_id=BKPIECEkConfigDefault</text>
<text text-anchor="middle" x="7128" y="-303.8" font-family="Times,serif" font-size="14.00">N=1, Q=0.428</text>
</g>
<!-- 11&#45;&gt;34 -->
<g id="edge34" class="edge">
<title>11&#45;&gt;34</title>
<path fill="none" stroke="black" d="M5182.23,-385.18C5527.71,-379.7 6253.99,-365.36 6879.32,-334.02"/>
<polygon fill="black" stroke="black" points="6879.63,-337.51 6889.44,-333.51 6879.28,-330.52 6879.63,-337.51"/>
</g>
<!-- 13 -->
<g id="node14" class="node">
<title>13</title>
<path fill="none" stroke="black" d="M881,-260C881,-260 153,-260 153,-260 147,-260 141,-254 141,-248 141,-248 141,-234 141,-234 141,-228 147,-222 153,-222 153,-222 881,-222 881,-222 887,-222 893,-228 893,-234 893,-234 893,-248 893,-248 893,-254 887,-260 881,-260"/>
<text text-anchor="middle" x="517" y="-244.8" font-family="Times,serif" font-size="14.00">SetPathConstraints#2.SetPathConstraints.joint_constraints=joint_1_s,0.0,0.1,0.1,1.0;joint_3_s,0.0,0.1,0.1,1.0;joint_5_s,0.0,0.1,0.1,1.0</text>
<text text-anchor="middle" x="517" y="-229.8" font-family="Times,serif" font-size="14.00">N=195, Q=0.917</text>
</g>
<!-- 12&#45;&gt;13 -->
<g id="edge13" class="edge">
<title>12&#45;&gt;13</title>
<path fill="none" stroke="black" d="M2082.77,-305.35C1800.62,-295.28 1324.03,-277.81 903.43,-260.06"/>
<polygon fill="black" stroke="black" points="903.33,-256.55 893.19,-259.63 903.03,-263.54 903.33,-256.55"/>
</g>
<!-- 18 -->
<g id="node19" class="node">
<title>18</title>
<path fill="none" stroke="black" d="M1513,-260C1513,-260 923,-260 923,-260 917,-260 911,-254 911,-248 911,-248 911,-234 911,-234 911,-228 917,-222 923,-222 923,-222 1513,-222 1513,-222 1519,-222 1525,-228 1525,-234 1525,-234 1525,-248 1525,-248 1525,-254 1519,-260 1513,-260"/>
<text text-anchor="middle" x="1218" y="-244.8" font-family="Times,serif" font-size="14.00">SetPathConstraints#2.SetPathConstraints.joint_constraints=joint_1_s,0.0,0.1,0.1,1.0;joint_3_s,0.0,0.1,0.1,1.0</text>
<text text-anchor="middle" x="1218" y="-229.8" font-family="Times,serif" font-size="14.00">N=1, Q=0.915</text>
</g>
<!-- 12&#45;&gt;18 -->
<g id="edge18" class="edge">
<title>12&#45;&gt;18</title>
<path fill="none" stroke="black" d="M2082.78,-298.04C1912.29,-286.99 1684.77,-272.25 1505.89,-260.66"/>
<polygon fill="black" stroke="black" points="1506,-257.16 1495.79,-260 1505.55,-264.14 1506,-257.16"/>
</g>
<!-- 19 -->
<g id="node20" class="node">
<title>19</title>
<path fill="none" stroke="black" d="M2007,-260C2007,-260 1555,-260 1555,-260 1549,-260 1543,-254 1543,-248 1543,-248 1543,-234 1543,-234 1543,-228 1549,-222 1555,-222 1555,-222 2007,-222 2007,-222 2013,-222 2019,-228 2019,-234 2019,-234 2019,-248 2019,-248 2019,-254 2013,-260 2007,-260"/>
<text text-anchor="middle" x="1781" y="-244.8" font-family="Times,serif" font-size="14.00">SetPathConstraints#2.SetPathConstraints.joint_constraints=joint_3_s,0.0,0.1,0.1,1.0</text>
<text text-anchor="middle" x="1781" y="-229.8" font-family="Times,serif" font-size="14.00">N=1, Q=0.916</text>
</g>
<!-- 12&#45;&gt;19 -->
<g id="edge19" class="edge">
<title>12&#45;&gt;19</title>
<path fill="none" stroke="black" d="M2191.78,-295.97C2111.58,-285.43 2010.37,-272.14 1928.47,-261.38"/>
<polygon fill="black" stroke="black" points="1928.7,-257.88 1918.33,-260.04 1927.79,-264.82 1928.7,-257.88"/>
</g>
<!-- 20 -->
<g id="node21" class="node">
<title>20</title>
<path fill="none" stroke="black" d="M2501,-260C2501,-260 2049,-260 2049,-260 2043,-260 2037,-254 2037,-248 2037,-248 2037,-234 2037,-234 2037,-228 2043,-222 2049,-222 2049,-222 2501,-222 2501,-222 2507,-222 2513,-228 2513,-234 2513,-234 2513,-248 2513,-248 2513,-254 2507,-260 2501,-260"/>
<text text-anchor="middle" x="2275" y="-244.8" font-family="Times,serif" font-size="14.00">SetPathConstraints#2.SetPathConstraints.joint_constraints=joint_5_s,0.0,0.1,0.1,1.0</text>
<text text-anchor="middle" x="2275" y="-229.8" font-family="Times,serif" font-size="14.00">N=1, Q=0.916</text>
</g>
<!-- 12&#45;&gt;20 -->
<g id="edge20" class="edge">
<title>12&#45;&gt;20</title>
<path fill="none" stroke="black" d="M2315.37,-295.83C2309.15,-287.54 2301.67,-277.56 2294.84,-268.45"/>
<polygon fill="black" stroke="black" points="2297.61,-266.31 2288.81,-260.41 2292.01,-270.51 2297.61,-266.31"/>
</g>
<!-- 21 -->
<g id="node22" class="node">
<title>21</title>
<path fill="none" stroke="black" d="M3133,-260C3133,-260 2543,-260 2543,-260 2537,-260 2531,-254 2531,-248 2531,-248 2531,-234 2531,-234 2531,-228 2537,-222 2543,-222 2543,-222 3133,-222 3133,-222 3139,-222 3145,-228 3145,-234 3145,-234 3145,-248 3145,-248 3145,-254 3139,-260 3133,-260"/>
<text text-anchor="middle" x="2838" y="-244.8" font-family="Times,serif" font-size="14.00">SetPathConstraints#2.SetPathConstraints.joint_constraints=joint_3_s,0.0,0.1,0.1,1.0;joint_5_s,0.0,0.1,0.1,1.0</text>
<text text-anchor="middle" x="2838" y="-229.8" font-family="Times,serif" font-size="14.00">N=1, Q=0.914</text>
</g>
<!-- 12&#45;&gt;21 -->
<g id="edge21" class="edge">
<title>12&#45;&gt;21</title>
<path fill="none" stroke="black" d="M2456.46,-295.97C2530.72,-285.47 2624.38,-272.22 2700.33,-261.47"/>
<polygon fill="black" stroke="black" points="2701.03,-264.91 2710.44,-260.04 2700.05,-257.98 2701.03,-264.91"/>
</g>
<!-- 22 -->
<g id="node23" class="node">
<title>22</title>
<path fill="none" stroke="black" d="M3765,-260C3765,-260 3175,-260 3175,-260 3169,-260 3163,-254 3163,-248 3163,-248 3163,-234 3163,-234 3163,-228 3169,-222 3175,-222 3175,-222 3765,-222 3765,-222 3771,-222 3777,-228 3777,-234 3777,-234 3777,-248 3777,-248 3777,-254 3771,-260 3765,-260"/>
<text text-anchor="middle" x="3470" y="-244.8" font-family="Times,serif" font-size="14.00">SetPathConstraints#2.SetPathConstraints.joint_constraints=joint_3_s,0.0,0.1,0.1,1.0;joint_6_s,0.0,0.1,0.1,1.0</text>
<text text-anchor="middle" x="3470" y="-229.8" font-family="Times,serif" font-size="14.00">N=1, Q=0.918</text>
</g>
<!-- 12&#45;&gt;22 -->
<g id="edge22" class="edge">
<title>12&#45;&gt;22</title>
<path fill="none" stroke="black" d="M2575.31,-296.57C2578.22,-296.38 2581.12,-296.19 2584,-296 2772.65,-283.59 2983.96,-270.68 3152.89,-260.59"/>
<polygon fill="black" stroke="black" points="3153.16,-264.08 3162.94,-259.99 3152.75,-257.09 3153.16,-264.08"/>
</g>
<!-- 23 -->
<g id="node24" class="node">
<title>23</title>
<path fill="none" stroke="black" d="M4397,-260C4397,-260 3807,-260 3807,-260 3801,-260 3795,-254 3795,-248 3795,-248 3795,-234 3795,-234 3795,-228 3801,-222 3807,-222 3807,-222 4397,-222 4397,-222 4403,-222 4409,-228 4409,-234 4409,-234 4409,-248 4409,-248 4409,-254 4403,-260 4397,-260"/>
<text text-anchor="middle" x="4102" y="-244.8" font-family="Times,serif" font-size="14.00">SetPathConstraints#2.SetPathConstraints.joint_constraints=joint_1_s,0.0,0.1,0.1,1.0;joint_5_s,0.0,0.1,0.1,1.0</text>
<text text-anchor="middle" x="4102" y="-229.8" font-family="Times,serif" font-size="14.00">N=1, Q=0.919</text>
</g>
<!-- 12&#45;&gt;23 -->
<g id="edge23" class="edge">
<title>12&#45;&gt;23</title>
<path fill="none" stroke="black" d="M2575.31,-296.45C2578.22,-296.29 2581.12,-296.14 2584,-296 3114.4,-269.35 3250.32,-283.02 3784.4,-260.06"/>
<polygon fill="black" stroke="black" points="3784.85,-263.55 3794.69,-259.62 3784.55,-256.55 3784.85,-263.55"/>
</g>
<!-- 24 -->
<g id="node25" class="node">
<title>24</title>
<path fill="none" stroke="black" d="M4891,-260C4891,-260 4439,-260 4439,-260 4433,-260 4427,-254 4427,-248 4427,-248 4427,-234 4427,-234 4427,-228 4433,-222 4439,-222 4439,-222 4891,-222 4891,-222 4897,-222 4903,-228 4903,-234 4903,-234 4903,-248 4903,-248 4903,-254 4897,-260 4891,-260"/>
<text text-anchor="middle" x="4665" y="-244.8" font-family="Times,serif" font-size="14.00">SetPathConstraints#2.SetPathConstraints.joint_constraints=joint_1_s,0.0,0.1,0.1,1.0</text>
<text text-anchor="middle" x="4665" y="-229.8" font-family="Times,serif" font-size="14.00">N=1, Q=0.891</text>
</g>
<!-- 12&#45;&gt;24 -->
<g id="edge24" class="edge">
<title>12&#45;&gt;24</title>
<path fill="none" stroke="black" d="M2575.3,-296.4C2578.22,-296.26 2581.12,-296.13 2584,-296 3395.06,-259.44 3601.89,-297.32 4416.53,-260.05"/>
<polygon fill="black" stroke="black" points="4416.92,-263.54 4426.75,-259.58 4416.6,-256.55 4416.92,-263.54"/>
</g>
<!-- 14 -->
<g id="node15" class="node">
<title>14</title>
<path fill="none" stroke="black" d="M532,-186C532,-186 12,-186 12,-186 6,-186 0,-180 0,-174 0,-174 0,-160 0,-160 0,-154 6,-148 12,-148 12,-148 532,-148 532,-148 538,-148 544,-154 544,-160 544,-160 544,-174 544,-174 544,-180 538,-186 532,-186"/>
<text text-anchor="middle" x="272" y="-170.8" font-family="Times,serif" font-size="14.00">ComputePathToPose#2.ComputePathToPose.planning_pipeline=pilz_industrial_motion_planner</text>
<text text-anchor="middle" x="272" y="-155.8" font-family="Times,serif" font-size="14.00">N=193, Q=0.918</text>
</g>
<!-- 13&#45;&gt;14 -->
<g id="edge14" class="edge">
<title>13&#45;&gt;14</title>
<path fill="none" stroke="black" d="M455.49,-221.92C421.42,-211.91 378.89,-199.41 343.36,-188.97"/>
<polygon fill="black" stroke="black" points="344.11,-185.54 333.53,-186.08 342.14,-192.26 344.11,-185.54"/>
</g>
<!-- 17 -->
<g id="node18" class="node">
<title>17</title>
<path fill="none" stroke="black" d="M951.5,-186C951.5,-186 574.5,-186 574.5,-186 568.5,-186 562.5,-180 562.5,-174 562.5,-174 562.5,-160 562.5,-160 562.5,-154 568.5,-148 574.5,-148 574.5,-148 951.5,-148 951.5,-148 957.5,-148 963.5,-154 963.5,-160 963.5,-160 963.5,-174 963.5,-174 963.5,-180 957.5,-186 951.5,-186"/>
<text text-anchor="middle" x="763" y="-170.8" font-family="Times,serif" font-size="14.00">ComputePathToPose#2.ComputePathToPose.planning_pipeline=ompl</text>
<text text-anchor="middle" x="763" y="-155.8" font-family="Times,serif" font-size="14.00">N=1, Q=0.753</text>
</g>
<!-- 13&#45;&gt;17 -->
<g id="edge17" class="edge">
<title>13&#45;&gt;17</title>
<path fill="none" stroke="black" d="M578.76,-221.92C612.97,-211.91 655.68,-199.41 691.35,-188.97"/>
<polygon fill="black" stroke="black" points="692.6,-192.25 701.22,-186.08 690.64,-185.53 692.6,-192.25"/>
</g>
<!-- 15 -->
<g id="node16" class="node">
<title>15</title>
<path fill="none" stroke="black" d="M438,-112C438,-112 106,-112 106,-112 100,-112 94,-106 94,-100 94,-100 94,-86 94,-86 94,-80 100,-74 106,-74 106,-74 438,-74 438,-74 444,-74 450,-80 450,-86 450,-86 450,-100 450,-100 450,-106 444,-112 438,-112"/>
<text text-anchor="middle" x="272" y="-96.8" font-family="Times,serif" font-size="14.00">ComputePathToPose#2.ComputePathToPose.planner_id=PTP</text>
<text text-anchor="middle" x="272" y="-81.8" font-family="Times,serif" font-size="14.00">N=192, Q=0.918</text>
</g>
<!-- 14&#45;&gt;15 -->
<g id="edge15" class="edge">
<title>14&#45;&gt;15</title>
<path fill="none" stroke="black" d="M272,-147.83C272,-140.13 272,-130.97 272,-122.42"/>
<polygon fill="black" stroke="black" points="275.5,-122.41 272,-112.41 268.5,-122.41 275.5,-122.41"/>
</g>
<!-- 16 -->
<g id="node17" class="node">
<title>16</title>
<path fill="none" stroke="black" d="M462,-38C462,-38 82,-38 82,-38 76,-38 70,-32 70,-26 70,-26 70,-12 70,-12 70,-6 76,0 82,0 82,0 462,0 462,0 468,0 474,-6 474,-12 474,-12 474,-26 474,-26 474,-32 468,-38 462,-38"/>
<text text-anchor="middle" x="272" y="-22.8" font-family="Times,serif" font-size="14.00">YaskawaGripperCommand#3.YaskawaGripperCommand.position=0.0</text>
<text text-anchor="middle" x="272" y="-7.8" font-family="Times,serif" font-size="14.00">N=191, Q=0.918</text>
</g>
<!-- 15&#45;&gt;16 -->
<g id="edge16" class="edge">
<title>15&#45;&gt;16</title>
<path fill="none" stroke="black" d="M272,-73.83C272,-66.13 272,-56.97 272,-48.42"/>
<polygon fill="black" stroke="black" points="275.5,-48.41 272,-38.41 268.5,-48.41 275.5,-48.41"/>
</g>
<!-- 36 -->
<g id="node37" class="node">
<title>36</title>
<path fill="none" stroke="black" d="M7731.5,-334C7731.5,-334 7396.5,-334 7396.5,-334 7390.5,-334 7384.5,-328 7384.5,-322 7384.5,-322 7384.5,-308 7384.5,-308 7384.5,-302 7390.5,-296 7396.5,-296 7396.5,-296 7731.5,-296 7731.5,-296 7737.5,-296 7743.5,-302 7743.5,-308 7743.5,-308 7743.5,-322 7743.5,-322 7743.5,-328 7737.5,-334 7731.5,-334"/>
<text text-anchor="middle" x="7564" y="-318.8" font-family="Times,serif" font-size="14.00">ComputePathToState#2.ComputePathToState.planner_id=PTP</text>
<text text-anchor="middle" x="7564" y="-303.8" font-family="Times,serif" font-size="14.00">N=32, Q=0.915</text>
</g>
<!-- 35&#45;&gt;36 -->
<g id="edge36" class="edge">
<title>35&#45;&gt;36</title>
<path fill="none" stroke="black" d="M6792.87,-372.96C6958.16,-363.33 7173.26,-349.85 7374.28,-334.04"/>
<polygon fill="black" stroke="black" points="7374.75,-337.52 7384.44,-333.24 7374.2,-330.54 7374.75,-337.52"/>
</g>
<!-- 37 -->
<g id="node38" class="node">
<title>37</title>
<path fill="none" stroke="black" d="M5915,-260C5915,-260 5187,-260 5187,-260 5181,-260 5175,-254 5175,-248 5175,-248 5175,-234 5175,-234 5175,-228 5181,-222 5187,-222 5187,-222 5915,-222 5915,-222 5921,-222 5927,-228 5927,-234 5927,-234 5927,-248 5927,-248 5927,-254 5921,-260 5915,-260"/>
<text text-anchor="middle" x="5551" y="-244.8" font-family="Times,serif" font-size="14.00">SetPathConstraints#2.SetPathConstraints.joint_constraints=joint_1_s,0.0,0.1,0.1,1.0;joint_3_s,0.0,0.1,0.1,1.0;joint_5_s,0.0,0.1,0.1,1.0</text>
<text text-anchor="middle" x="5551" y="-229.8" font-family="Times,serif" font-size="14.00">N=24, Q=0.913</text>
</g>
<!-- 36&#45;&gt;37 -->
<g id="edge37" class="edge">
<title>36&#45;&gt;37</title>
<path fill="none" stroke="black" d="M7384.46,-296.59C7381.28,-296.39 7378.13,-296.19 7375,-296 6739.82,-257.86 6577.09,-282.67 5937.59,-260.05"/>
<polygon fill="black" stroke="black" points="5937.31,-256.54 5927.19,-259.68 5937.06,-263.53 5937.31,-256.54"/>
</g>
<!-- 42 -->
<g id="node43" class="node">
<title>42</title>
<path fill="none" stroke="black" d="M6547,-260C6547,-260 5957,-260 5957,-260 5951,-260 5945,-254 5945,-248 5945,-248 5945,-234 5945,-234 5945,-228 5951,-222 5957,-222 5957,-222 6547,-222 6547,-222 6553,-222 6559,-228 6559,-234 6559,-234 6559,-248 6559,-248 6559,-254 6553,-260 6547,-260"/>
<text text-anchor="middle" x="6252" y="-244.8" font-family="Times,serif" font-size="14.00">SetPathConstraints#2.SetPathConstraints.joint_constraints=joint_1_s,0.0,0.1,0.1,1.0;joint_3_s,0.0,0.1,0.1,1.0</text>
<text text-anchor="middle" x="6252" y="-229.8" font-family="Times,serif" font-size="14.00">N=1, Q=0.993</text>
</g>
<!-- 36&#45;&gt;42 -->
<g id="edge42" class="edge">
<title>36&#45;&gt;42</title>
<path fill="none" stroke="black" d="M7384.45,-296.68C7381.28,-296.45 7378.12,-296.22 7375,-296 7020.17,-271.2 6928.26,-278.08 6569.46,-260.07"/>
<polygon fill="black" stroke="black" points="6569.48,-256.57 6559.31,-259.56 6569.12,-263.56 6569.48,-256.57"/>
</g>
<!-- 43 -->
<g id="node44" class="node">
<title>43</title>
<path fill="none" stroke="black" d="M7041,-260C7041,-260 6589,-260 6589,-260 6583,-260 6577,-254 6577,-248 6577,-248 6577,-234 6577,-234 6577,-228 6583,-222 6589,-222 6589,-222 7041,-222 7041,-222 7047,-222 7053,-228 7053,-234 7053,-234 7053,-248 7053,-248 7053,-254 7047,-260 7041,-260"/>
<text text-anchor="middle" x="6815" y="-244.8" font-family="Times,serif" font-size="14.00">SetPathConstraints#2.SetPathConstraints.joint_constraints=joint_3_s,0.0,0.1,0.1,1.0</text>
<text text-anchor="middle" x="6815" y="-229.8" font-family="Times,serif" font-size="14.00">N=1, Q=0.915</text>
</g>
<!-- 36&#45;&gt;43 -->
<g id="edge43" class="edge">
<title>36&#45;&gt;43</title>
<path fill="none" stroke="black" d="M7384.12,-296.71C7272.04,-285.93 7127.75,-272.06 7012.5,-260.99"/>
<polygon fill="black" stroke="black" points="7012.79,-257.5 7002.5,-260.02 7012.12,-264.47 7012.79,-257.5"/>
</g>
<!-- 44 -->
<g id="node45" class="node">
<title>44</title>
<path fill="none" stroke="black" d="M7535,-260C7535,-260 7083,-260 7083,-260 7077,-260 7071,-254 7071,-248 7071,-248 7071,-234 7071,-234 7071,-228 7077,-222 7083,-222 7083,-222 7535,-222 7535,-222 7541,-222 7547,-228 7547,-234 7547,-234 7547,-248 7547,-248 7547,-254 7541,-260 7535,-260"/>
<text text-anchor="middle" x="7309" y="-244.8" font-family="Times,serif" font-size="14.00">SetPathConstraints#2.SetPathConstraints.joint_constraints=joint_5_s,0.0,0.1,0.1,1.0</text>
<text text-anchor="middle" x="7309" y="-229.8" font-family="Times,serif" font-size="14.00">N=1, Q=0.919</text>
</g>
<!-- 36&#45;&gt;44 -->
<g id="edge44" class="edge">
<title>36&#45;&gt;44</title>
<path fill="none" stroke="black" d="M7499.98,-295.92C7464.36,-285.87 7419.87,-273.31 7382.8,-262.84"/>
<polygon fill="black" stroke="black" points="7383.62,-259.43 7373.04,-260.08 7381.72,-266.17 7383.62,-259.43"/>
</g>
<!-- 45 -->
<g id="node46" class="node">
<title>45</title>
<path fill="none" stroke="black" d="M8167,-260C8167,-260 7577,-260 7577,-260 7571,-260 7565,-254 7565,-248 7565,-248 7565,-234 7565,-234 7565,-228 7571,-222 7577,-222 7577,-222 8167,-222 8167,-222 8173,-222 8179,-228 8179,-234 8179,-234 8179,-248 8179,-248 8179,-254 8173,-260 8167,-260"/>
<text text-anchor="middle" x="7872" y="-244.8" font-family="Times,serif" font-size="14.00">SetPathConstraints#2.SetPathConstraints.joint_constraints=joint_3_s,0.0,0.1,0.1,1.0;joint_5_s,0.0,0.1,0.1,1.0</text>
<text text-anchor="middle" x="7872" y="-229.8" font-family="Times,serif" font-size="14.00">N=1, Q=0.892</text>
</g>
<!-- 36&#45;&gt;45 -->
<g id="edge45" class="edge">
<title>36&#45;&gt;45</title>
<path fill="none" stroke="black" d="M7641.32,-295.92C7685.07,-285.7 7739.89,-272.88 7785.12,-262.31"/>
<polygon fill="black" stroke="black" points="7785.97,-265.71 7794.91,-260.02 7784.38,-258.89 7785.97,-265.71"/>
</g>
<!-- 46 -->
<g id="node47" class="node">
<title>46</title>
<path fill="none" stroke="black" d="M8799,-260C8799,-260 8209,-260 8209,-260 8203,-260 8197,-254 8197,-248 8197,-248 8197,-234 8197,-234 8197,-228 8203,-222 8209,-222 8209,-222 8799,-222 8799,-222 8805,-222 8811,-228 8811,-234 8811,-234 8811,-248 8811,-248 8811,-254 8805,-260 8799,-260"/>
<text text-anchor="middle" x="8504" y="-244.8" font-family="Times,serif" font-size="14.00">SetPathConstraints#2.SetPathConstraints.joint_constraints=joint_3_s,0.0,0.1,0.1,1.0;joint_6_s,0.0,0.1,0.1,1.0</text>
<text text-anchor="middle" x="8504" y="-229.8" font-family="Times,serif" font-size="14.00">N=1, Q=0.918</text>
</g>
<!-- 36&#45;&gt;46 -->
<g id="edge46" class="edge">
<title>36&#45;&gt;46</title>
<path fill="none" stroke="black" d="M7743.57,-300.25C7889.59,-289.06 8097.12,-273.17 8258.49,-260.8"/>
<polygon fill="black" stroke="black" points="8258.87,-264.29 8268.57,-260.03 8258.33,-257.31 8258.87,-264.29"/>
</g>
<!-- 47 -->
<g id="node48" class="node">
<title>47</title>
<path fill="none" stroke="black" d="M9431,-260C9431,-260 8841,-260 8841,-260 8835,-260 8829,-254 8829,-248 8829,-248 8829,-234 8829,-234 8829,-228 8835,-222 8841,-222 8841,-222 9431,-222 9431,-222 9437,-222 9443,-228 9443,-234 9443,-234 9443,-248 9443,-248 9443,-254 9437,-260 9431,-260"/>
<text text-anchor="middle" x="9136" y="-244.8" font-family="Times,serif" font-size="14.00">SetPathConstraints#2.SetPathConstraints.joint_constraints=joint_1_s,0.0,0.1,0.1,1.0;joint_5_s,0.0,0.1,0.1,1.0</text>
<text text-anchor="middle" x="9136" y="-229.8" font-family="Times,serif" font-size="14.00">N=1, Q=0.916</text>
</g>
<!-- 36&#45;&gt;47 -->
<g id="edge47" class="edge">
<title>36&#45;&gt;47</title>
<path fill="none" stroke="black" d="M7743.69,-307.06C7985.44,-297.55 8429.09,-279.47 8818.63,-260.07"/>
<polygon fill="black" stroke="black" points="8818.87,-263.56 8828.69,-259.56 8818.52,-256.57 8818.87,-263.56"/>
</g>
<!-- 48 -->
<g id="node49" class="node">
<title>48</title>
<path fill="none" stroke="black" d="M9925,-260C9925,-260 9473,-260 9473,-260 9467,-260 9461,-254 9461,-248 9461,-248 9461,-234 9461,-234 9461,-228 9467,-222 9473,-222 9473,-222 9925,-222 9925,-222 9931,-222 9937,-228 9937,-234 9937,-234 9937,-248 9937,-248 9937,-254 9931,-260 9925,-260"/>
<text text-anchor="middle" x="9699" y="-244.8" font-family="Times,serif" font-size="14.00">SetPathConstraints#2.SetPathConstraints.joint_constraints=joint_1_s,0.0,0.1,0.1,1.0</text>
<text text-anchor="middle" x="9699" y="-229.8" font-family="Times,serif" font-size="14.00">N=1, Q=0.888</text>
</g>
<!-- 36&#45;&gt;48 -->
<g id="edge48" class="edge">
<title>36&#45;&gt;48</title>
<path fill="none" stroke="black" d="M7743.72,-311.5C8077.7,-306.27 8816.86,-291.96 9450.49,-260.06"/>
<polygon fill="black" stroke="black" points="9450.94,-263.55 9460.75,-259.55 9450.59,-256.55 9450.94,-263.55"/>
</g>
<!-- 38 -->
<g id="node39" class="node">
<title>38</title>
<path fill="none" stroke="black" d="M5565,-186C5565,-186 5045,-186 5045,-186 5039,-186 5033,-180 5033,-174 5033,-174 5033,-160 5033,-160 5033,-154 5039,-148 5045,-148 5045,-148 5565,-148 5565,-148 5571,-148 5577,-154 5577,-160 5577,-160 5577,-174 5577,-174 5577,-180 5571,-186 5565,-186"/>
<text text-anchor="middle" x="5305" y="-170.8" font-family="Times,serif" font-size="14.00">ComputePathToPose#2.ComputePathToPose.planning_pipeline=pilz_industrial_motion_planner</text>
<text text-anchor="middle" x="5305" y="-155.8" font-family="Times,serif" font-size="14.00">N=22, Q=0.917</text>
</g>
<!-- 37&#45;&gt;38 -->
<g id="edge38" class="edge">
<title>37&#45;&gt;38</title>
<path fill="none" stroke="black" d="M5489.24,-221.92C5455.03,-211.91 5412.32,-199.41 5376.65,-188.97"/>
<polygon fill="black" stroke="black" points="5377.36,-185.53 5366.78,-186.08 5375.4,-192.25 5377.36,-185.53"/>
</g>
<!-- 41 -->
<g id="node42" class="node">
<title>41</title>
<path fill="none" stroke="black" d="M5984.5,-186C5984.5,-186 5607.5,-186 5607.5,-186 5601.5,-186 5595.5,-180 5595.5,-174 5595.5,-174 5595.5,-160 5595.5,-160 5595.5,-154 5601.5,-148 5607.5,-148 5607.5,-148 5984.5,-148 5984.5,-148 5990.5,-148 5996.5,-154 5996.5,-160 5996.5,-160 5996.5,-174 5996.5,-174 5996.5,-180 5990.5,-186 5984.5,-186"/>
<text text-anchor="middle" x="5796" y="-170.8" font-family="Times,serif" font-size="14.00">ComputePathToPose#2.ComputePathToPose.planning_pipeline=ompl</text>
<text text-anchor="middle" x="5796" y="-155.8" font-family="Times,serif" font-size="14.00">N=1, Q=0.825</text>
</g>
<!-- 37&#45;&gt;41 -->
<g id="edge41" class="edge">
<title>37&#45;&gt;41</title>
<path fill="none" stroke="black" d="M5612.51,-221.92C5646.58,-211.91 5689.11,-199.41 5724.64,-188.97"/>
<polygon fill="black" stroke="black" points="5725.86,-192.26 5734.47,-186.08 5723.89,-185.54 5725.86,-192.26"/>
</g>
<!-- 39 -->
<g id="node40" class="node">
<title>39</title>
<path fill="none" stroke="black" d="M5471,-112C5471,-112 5139,-112 5139,-112 5133,-112 5127,-106 5127,-100 5127,-100 5127,-86 5127,-86 5127,-80 5133,-74 5139,-74 5139,-74 5471,-74 5471,-74 5477,-74 5483,-80 5483,-86 5483,-86 5483,-100 5483,-100 5483,-106 5477,-112 5471,-112"/>
<text text-anchor="middle" x="5305" y="-96.8" font-family="Times,serif" font-size="14.00">ComputePathToPose#2.ComputePathToPose.planner_id=PTP</text>
<text text-anchor="middle" x="5305" y="-81.8" font-family="Times,serif" font-size="14.00">N=21, Q=0.917</text>
</g>
<!-- 38&#45;&gt;39 -->
<g id="edge39" class="edge">
<title>38&#45;&gt;39</title>
<path fill="none" stroke="black" d="M5305,-147.83C5305,-140.13 5305,-130.97 5305,-122.42"/>
<polygon fill="black" stroke="black" points="5308.5,-122.41 5305,-112.41 5301.5,-122.41 5308.5,-122.41"/>
</g>
<!-- 40 -->
<g id="node41" class="node">
<title>40</title>
<path fill="none" stroke="black" d="M5495,-38C5495,-38 5115,-38 5115,-38 5109,-38 5103,-32 5103,-26 5103,-26 5103,-12 5103,-12 5103,-6 5109,0 5115,0 5115,0 5495,0 5495,0 5501,0 5507,-6 5507,-12 5507,-12 5507,-26 5507,-26 5507,-32 5501,-38 5495,-38"/>
<text text-anchor="middle" x="5305" y="-22.8" font-family="Times,serif" font-size="14.00">YaskawaGripperCommand#3.YaskawaGripperCommand.position=0.0</text>
<text text-anchor="middle" x="5305" y="-7.8" font-family="Times,serif" font-size="14.00">N=20, Q=0.917</text>
</g>
<!-- 39&#45;&gt;40 -->
<g id="edge40" class="edge">
<title>39&#45;&gt;40</title>
<path fill="none" stroke="black" d="M5305,-73.83C5305,-66.13 5305,-56.97 5305,-48.42"/>
<polygon fill="black" stroke="black" points="5308.5,-48.41 5305,-38.41 5301.5,-48.41 5308.5,-48.41"/>
</g>
<!-- 51 -->
<g id="node52" class="node">
<title>51</title>
<path fill="none" stroke="black" d="M6539,-704C6539,-704 6019,-704 6019,-704 6013,-704 6007,-698 6007,-692 6007,-692 6007,-678 6007,-678 6007,-672 6013,-666 6019,-666 6019,-666 6539,-666 6539,-666 6545,-666 6551,-672 6551,-678 6551,-678 6551,-692 6551,-692 6551,-698 6545,-704 6539,-704"/>
<text text-anchor="middle" x="6279" y="-688.8" font-family="Times,serif" font-size="14.00">ComputePathToPose#1.ComputePathToPose.planning_pipeline=pilz_industrial_motion_planner</text>
<text text-anchor="middle" x="6279" y="-673.8" font-family="Times,serif" font-size="14.00">N=1, Q=0.897</text>
</g>
<!-- 50&#45;&gt;51 -->
<g id="edge51" class="edge">
<title>50&#45;&gt;51</title>
<path fill="none" stroke="black" d="M6279,-739.83C6279,-732.13 6279,-722.97 6279,-714.42"/>
<polygon fill="black" stroke="black" points="6282.5,-714.41 6279,-704.41 6275.5,-714.41 6282.5,-714.41"/>
</g>
<!-- 53 -->
<g id="node54" class="node">
<title>53</title>
<path fill="none" stroke="black" d="M7102,-704C7102,-704 6582,-704 6582,-704 6576,-704 6570,-698 6570,-692 6570,-692 6570,-678 6570,-678 6570,-672 6576,-666 6582,-666 6582,-666 7102,-666 7102,-666 7108,-666 7114,-672 7114,-678 7114,-678 7114,-692 7114,-692 7114,-698 7108,-704 7102,-704"/>
<text text-anchor="middle" x="6842" y="-688.8" font-family="Times,serif" font-size="14.00">ComputePathToPose#1.ComputePathToPose.planning_pipeline=pilz_industrial_motion_planner</text>
<text text-anchor="middle" x="6842" y="-673.8" font-family="Times,serif" font-size="14.00">N=1, Q=0.917</text>
</g>
<!-- 52&#45;&gt;53 -->
<g id="edge53" class="edge">
<title>52&#45;&gt;53</title>
<path fill="none" stroke="black" d="M6842,-739.83C6842,-732.13 6842,-722.97 6842,-714.42"/>
<polygon fill="black" stroke="black" points="6845.5,-714.41 6842,-704.41 6838.5,-714.41 6845.5,-714.41"/>
</g>
<!-- 60 -->
<g id="node61" class="node">
<title>60</title>
<path fill="none" stroke="black" d="M10791,-778C10791,-778 10063,-778 10063,-778 10057,-778 10051,-772 10051,-766 10051,-766 10051,-752 10051,-752 10051,-746 10057,-740 10063,-740 10063,-740 10791,-740 10791,-740 10797,-740 10803,-746 10803,-752 10803,-752 10803,-766 10803,-766 10803,-772 10797,-778 10791,-778"/>
<text text-anchor="middle" x="10427" y="-762.8" font-family="Times,serif" font-size="14.00">SetPathConstraints#1.SetPathConstraints.joint_constraints=joint_1_s,0.0,0.1,0.1,1.0;joint_3_s,0.0,0.1,0.1,1.0;joint_5_s,0.0,0.1,0.1,1.0</text>
<text text-anchor="middle" x="10427" y="-747.8" font-family="Times,serif" font-size="14.00">N=1, Q=0.915</text>
</g>
<!-- 59&#45;&gt;60 -->
<g id="edge60" class="edge">
<title>59&#45;&gt;60</title>
<path fill="none" stroke="black" d="M11119.86,-814.64C10982.66,-803.82 10806.13,-789.9 10665.59,-778.82"/>
<polygon fill="black" stroke="black" points="10665.78,-775.32 10655.53,-778.02 10665.23,-782.3 10665.78,-775.32"/>
</g>
<!-- 61 -->
<g id="node62" class="node">
<title>61</title>
<path fill="none" stroke="black" d="M11285,-778C11285,-778 10833,-778 10833,-778 10827,-778 10821,-772 10821,-766 10821,-766 10821,-752 10821,-752 10821,-746 10827,-740 10833,-740 10833,-740 11285,-740 11285,-740 11291,-740 11297,-746 11297,-752 11297,-752 11297,-766 11297,-766 11297,-772 11291,-778 11285,-778"/>
<text text-anchor="middle" x="11059" y="-762.8" font-family="Times,serif" font-size="14.00">SetPathConstraints#1.SetPathConstraints.joint_constraints=joint_3_s,0.0,0.1,0.1,1.0</text>
<text text-anchor="middle" x="11059" y="-747.8" font-family="Times,serif" font-size="14.00">N=1, Q=0.917</text>
</g>
<!-- 59&#45;&gt;61 -->
<g id="edge61" class="edge">
<title>59&#45;&gt;61</title>
<path fill="none" stroke="black" d="M11269.45,-813.92C11229.87,-803.78 11180.34,-791.09 11139.28,-780.57"/>
<polygon fill="black" stroke="black" points="11140.13,-777.17 11129.57,-778.08 11138.39,-783.96 11140.13,-777.17"/>
</g>
<!-- 62 -->
<g id="node63" class="node">
<title>62</title>
<path fill="none" stroke="black" d="M11917,-778C11917,-778 11327,-778 11327,-778 11321,-778 11315,-772 11315,-766 11315,-766 11315,-752 11315,-752 11315,-746 11321,-740 11327,-740 11327,-740 11917,-740 11917,-740 11923,-740 11929,-746 11929,-752 11929,-752 11929,-766 11929,-766 11929,-772 11923,-778 11917,-778"/>
<text text-anchor="middle" x="11622" y="-762.8" font-family="Times,serif" font-size="14.00">SetPathConstraints#1.SetPathConstraints.joint_constraints=joint_1_s,0.0,0.1,0.1,1.0;joint_3_s,0.0,0.1,0.1,1.0</text>
<text text-anchor="middle" x="11622" y="-747.8" font-family="Times,serif" font-size="14.00">N=1, Q=0.792</text>
</g>
<!-- 59&#45;&gt;62 -->
<g id="edge62" class="edge">
<title>59&#45;&gt;62</title>
<path fill="none" stroke="black" d="M11410.8,-813.92C11450.52,-803.78 11500.23,-791.09 11541.44,-780.57"/>
<polygon fill="black" stroke="black" points="11542.35,-783.95 11551.17,-778.08 11540.62,-777.17 11542.35,-783.95"/>
</g>
<!-- 63 -->
<g id="node64" class="node">
<title>63</title>
<path fill="none" stroke="black" d="M12549,-778C12549,-778 11959,-778 11959,-778 11953,-778 11947,-772 11947,-766 11947,-766 11947,-752 11947,-752 11947,-746 11953,-740 11959,-740 11959,-740 12549,-740 12549,-740 12555,-740 12561,-746 12561,-752 12561,-752 12561,-766 12561,-766 12561,-772 12555,-778 12549,-778"/>
<text text-anchor="middle" x="12254" y="-762.8" font-family="Times,serif" font-size="14.00">SetPathConstraints#1.SetPathConstraints.joint_constraints=joint_3_s,0.0,0.1,0.1,1.0;joint_6_s,0.0,0.1,0.1,1.0</text>
<text text-anchor="middle" x="12254" y="-747.8" font-family="Times,serif" font-size="14.00">N=1, Q=0.917</text>
</g>
<!-- 59&#45;&gt;63 -->
<g id="edge63" class="edge">
<title>59&#45;&gt;63</title>
<path fill="none" stroke="black" d="M11560.09,-814.66C11697.56,-803.83 11874.57,-789.89 12015.4,-778.8"/>
<polygon fill="black" stroke="black" points="12015.78,-782.28 12025.47,-778 12015.23,-775.3 12015.78,-782.28"/>
</g>
<!-- 64 -->
<g id="node65" class="node">
<title>64</title>
<path fill="none" stroke="black" d="M13181,-778C13181,-778 12591,-778 12591,-778 12585,-778 12579,-772 12579,-766 12579,-766 12579,-752 12579,-752 12579,-746 12585,-740 12591,-740 12591,-740 13181,-740 13181,-740 13187,-740 13193,-746 13193,-752 13193,-752 13193,-766 13193,-766 13193,-772 13187,-778 13181,-778"/>
<text text-anchor="middle" x="12886" y="-762.8" font-family="Times,serif" font-size="14.00">SetPathConstraints#1.SetPathConstraints.joint_constraints=joint_3_s,0.0,0.1,0.1,1.0;joint_5_s,0.0,0.1,0.1,1.0</text>
<text text-anchor="middle" x="12886" y="-747.8" font-family="Times,serif" font-size="14.00">N=1, Q=0.916</text>
</g>
<!-- 59&#45;&gt;64 -->
<g id="edge64" class="edge">
<title>59&#45;&gt;64</title>
<path fill="none" stroke="black" d="M11560.28,-814.51C11563.21,-814.34 11566.11,-814.17 11569,-814 12010.08,-788.74 12123.59,-798.51 12568.45,-778.07"/>
<polygon fill="black" stroke="black" points="12568.86,-781.55 12578.69,-777.59 12568.54,-774.56 12568.86,-781.55"/>
</g>
<!-- 80 -->
<g id="node81" class="node">
<title>80</title>
<path fill="none" stroke="black" d="M17436.5,-1000C17436.5,-1000 17101.5,-1000 17101.5,-1000 17095.5,-1000 17089.5,-994 17089.5,-988 17089.5,-988 17089.5,-974 17089.5,-974 17089.5,-968 17095.5,-962 17101.5,-962 17101.5,-962 17436.5,-962 17436.5,-962 17442.5,-962 17448.5,-968 17448.5,-974 17448.5,-974 17448.5,-988 17448.5,-988 17448.5,-994 17442.5,-1000 17436.5,-1000"/>
<text text-anchor="middle" x="17269" y="-984.8" font-family="Times,serif" font-size="14.00">ComputePathToState#1.ComputePathToState.planner_id=PTP</text>
<text text-anchor="middle" x="17269" y="-969.8" font-family="Times,serif" font-size="14.00">N=12, Q=0.920</text>
</g>
<!-- 79&#45;&gt;80 -->
<g id="edge80" class="edge">
<title>79&#45;&gt;80</title>
<path fill="none" stroke="black" d="M16484.96,-1039.35C16653.59,-1029.76 16874.42,-1016.17 17079.34,-1000.12"/>
<polygon fill="black" stroke="black" points="17079.7,-1003.6 17089.4,-999.33 17079.16,-996.62 17079.7,-1003.6"/>
</g>
<!-- 81 -->
<g id="node82" class="node">
<title>81</title>
<path fill="none" stroke="black" d="M17459,-926C17459,-926 17079,-926 17079,-926 17073,-926 17067,-920 17067,-914 17067,-914 17067,-900 17067,-900 17067,-894 17073,-888 17079,-888 17079,-888 17459,-888 17459,-888 17465,-888 17471,-894 17471,-900 17471,-900 17471,-914 17471,-914 17471,-920 17465,-926 17459,-926"/>
<text text-anchor="middle" x="17269" y="-910.8" font-family="Times,serif" font-size="14.00">YaskawaGripperCommand#1.YaskawaGripperCommand.position=0.0</text>
<text text-anchor="middle" x="17269" y="-895.8" font-family="Times,serif" font-size="14.00">N=11, Q=0.920</text>
</g>
<!-- 80&#45;&gt;81 -->
<g id="edge81" class="edge">
<title>80&#45;&gt;81</title>
<path fill="none" stroke="black" d="M17269,-961.83C17269,-954.13 17269,-944.97 17269,-936.42"/>
<polygon fill="black" stroke="black" points="17272.5,-936.41 17269,-926.41 17265.5,-936.41 17272.5,-936.41"/>
</g>
<!-- 82 -->
<g id="node83" class="node">
<title>82</title>
<path fill="none" stroke="black" d="M16331,-852C16331,-852 15915,-852 15915,-852 15909,-852 15903,-846 15903,-840 15903,-840 15903,-826 15903,-826 15903,-820 15909,-814 15915,-814 15915,-814 16331,-814 16331,-814 16337,-814 16343,-820 16343,-826 16343,-826 16343,-840 16343,-840 16343,-846 16337,-852 16331,-852"/>
<text text-anchor="middle" x="16123" y="-836.8" font-family="Times,serif" font-size="14.00">UpdatePose#1.UpdatePose.update_relative_pose=0.0;0.0;0.14;0.0;0.0;0.0;0.0</text>
<text text-anchor="middle" x="16123" y="-821.8" font-family="Times,serif" font-size="14.00">N=5, Q=0.918</text>
</g>
<!-- 81&#45;&gt;82 -->
<g id="edge82" class="edge">
<title>81&#45;&gt;82</title>
<path fill="none" stroke="black" d="M17066.78,-895.23C16883.37,-885.2 16605.26,-869.32 16353.37,-852.09"/>
<polygon fill="black" stroke="black" points="16353.51,-848.59 16343.29,-851.4 16353.03,-855.57 16353.51,-848.59"/>
</g>
<!-- 87 -->
<g id="node88" class="node">
<title>87</title>
<path fill="none" stroke="black" d="M16789,-852C16789,-852 16373,-852 16373,-852 16367,-852 16361,-846 16361,-840 16361,-840 16361,-826 16361,-826 16361,-820 16367,-814 16373,-814 16373,-814 16789,-814 16789,-814 16795,-814 16801,-820 16801,-826 16801,-826 16801,-840 16801,-840 16801,-846 16795,-852 16789,-852"/>
<text text-anchor="middle" x="16581" y="-836.8" font-family="Times,serif" font-size="14.00">UpdatePose#1.UpdatePose.update_relative_pose=0.0;0.0;0.13;0.0;0.0;0.0;0.0</text>
<text text-anchor="middle" x="16581" y="-821.8" font-family="Times,serif" font-size="14.00">N=1, Q=0.991</text>
</g>
<!-- 81&#45;&gt;87 -->
<g id="edge87" class="edge">
<title>81&#45;&gt;87</title>
<path fill="none" stroke="black" d="M17096.72,-887.97C16995.12,-877.34 16866.65,-863.89 16763.35,-853.08"/>
<polygon fill="black" stroke="black" points="16763.42,-849.57 16753.11,-852.01 16762.7,-856.53 16763.42,-849.57"/>
</g>
<!-- 88 -->
<g id="node89" class="node">
<title>88</title>
<path fill="none" stroke="black" d="M17247,-852C17247,-852 16831,-852 16831,-852 16825,-852 16819,-846 16819,-840 16819,-840 16819,-826 16819,-826 16819,-820 16825,-814 16831,-814 16831,-814 17247,-814 17247,-814 17253,-814 17259,-820 17259,-826 17259,-826 17259,-840 17259,-840 17259,-846 17253,-852 17247,-852"/>
<text text-anchor="middle" x="17039" y="-836.8" font-family="Times,serif" font-size="14.00">UpdatePose#1.UpdatePose.update_relative_pose=0.0;0.0;0.12;0.0;0.0;0.0;0.0</text>
<text text-anchor="middle" x="17039" y="-821.8" font-family="Times,serif" font-size="14.00">N=1, Q=0.911</text>
</g>
<!-- 81&#45;&gt;88 -->
<g id="edge88" class="edge">
<title>81&#45;&gt;88</title>
<path fill="none" stroke="black" d="M17211.26,-887.92C17179.41,-877.95 17139.69,-865.52 17106.42,-855.1"/>
<polygon fill="black" stroke="black" points="17107.35,-851.73 17096.77,-852.08 17105.26,-858.41 17107.35,-851.73"/>
</g>
<!-- 89 -->
<g id="node90" class="node">
<title>89</title>
<path fill="none" stroke="black" d="M17711,-852C17711,-852 17289,-852 17289,-852 17283,-852 17277,-846 17277,-840 17277,-840 17277,-826 17277,-826 17277,-820 17283,-814 17289,-814 17289,-814 17711,-814 17711,-814 17717,-814 17723,-820 17723,-826 17723,-826 17723,-840 17723,-840 17723,-846 17717,-852 17711,-852"/>
<text text-anchor="middle" x="17500" y="-836.8" font-family="Times,serif" font-size="14.00">UpdatePose#1.UpdatePose.update_relative_pose=0.0;0.0;0.115;0.0;0.0;0.0;0.0</text>
<text text-anchor="middle" x="17500" y="-821.8" font-family="Times,serif" font-size="14.00">N=1, Q=0.910</text>
</g>
<!-- 81&#45;&gt;89 -->
<g id="edge89" class="edge">
<title>81&#45;&gt;89</title>
<path fill="none" stroke="black" d="M17326.99,-887.92C17358.98,-877.95 17398.88,-865.52 17432.29,-855.1"/>
<polygon fill="black" stroke="black" points="17433.48,-858.4 17441.98,-852.08 17431.39,-851.72 17433.48,-858.4"/>
</g>
<!-- 90 -->
<g id="node91" class="node">
<title>90</title>
<path fill="none" stroke="black" d="M18175,-852C18175,-852 17753,-852 17753,-852 17747,-852 17741,-846 17741,-840 17741,-840 17741,-826 17741,-826 17741,-820 17747,-814 17753,-814 17753,-814 18175,-814 18175,-814 18181,-814 18187,-820 18187,-826 18187,-826 18187,-840 18187,-840 18187,-846 18181,-852 18175,-852"/>
<text text-anchor="middle" x="17964" y="-836.8" font-family="Times,serif" font-size="14.00">UpdatePose#1.UpdatePose.update_relative_pose=0.0;0.0;0.125;0.0;0.0;0.0;0.0</text>
<text text-anchor="middle" x="17964" y="-821.8" font-family="Times,serif" font-size="14.00">N=1, Q=0.913</text>
</g>
<!-- 81&#45;&gt;90 -->
<g id="edge90" class="edge">
<title>81&#45;&gt;90</title>
<path fill="none" stroke="black" d="M17443.03,-887.97C17545.77,-877.33 17675.71,-863.87 17780.11,-853.05"/>
<polygon fill="black" stroke="black" points="17780.55,-856.52 17790.13,-852.01 17779.83,-849.56 17780.55,-856.52"/>
</g>
<!-- 91 -->
<g id="node92" class="node">
<title>91</title>
<path fill="none" stroke="black" d="M18633,-852C18633,-852 18217,-852 18217,-852 18211,-852 18205,-846 18205,-840 18205,-840 18205,-826 18205,-826 18205,-820 18211,-814 18217,-814 18217,-814 18633,-814 18633,-814 18639,-814 18645,-820 18645,-826 18645,-826 18645,-840 18645,-840 18645,-846 18639,-852 18633,-852"/>
<text text-anchor="middle" x="18425" y="-836.8" font-family="Times,serif" font-size="14.00">UpdatePose#1.UpdatePose.update_relative_pose=0.0;0.0;0.15;0.0;0.0;0.0;0.0</text>
<text text-anchor="middle" x="18425" y="-821.8" font-family="Times,serif" font-size="14.00">N=1, Q=0.887</text>
</g>
<!-- 81&#45;&gt;91 -->
<g id="edge91" class="edge">
<title>81&#45;&gt;91</title>
<path fill="none" stroke="black" d="M17471.16,-895.41C17656.52,-885.41 17938.94,-869.5 18194.48,-852.1"/>
<polygon fill="black" stroke="black" points="18194.97,-855.57 18204.71,-851.4 18194.5,-848.59 18194.97,-855.57"/>
</g>
<!-- 83 -->
<g id="node84" class="node">
<title>83</title>
<path fill="none" stroke="black" d="M15574,-778C15574,-778 14846,-778 14846,-778 14840,-778 14834,-772 14834,-766 14834,-766 14834,-752 14834,-752 14834,-746 14840,-740 14846,-740 14846,-740 15574,-740 15574,-740 15580,-740 15586,-746 15586,-752 15586,-752 15586,-766 15586,-766 15586,-772 15580,-778 15574,-778"/>
<text text-anchor="middle" x="15210" y="-762.8" font-family="Times,serif" font-size="14.00">SetPathConstraints#1.SetPathConstraints.joint_constraints=joint_1_s,0.0,0.1,0.1,1.0;joint_3_s,0.0,0.1,0.1,1.0;joint_5_s,0.0,0.1,0.1,1.0</text>
<text text-anchor="middle" x="15210" y="-747.8" font-family="Times,serif" font-size="14.00">N=1, Q=0.918</text>
</g>
<!-- 82&#45;&gt;83 -->
<g id="edge83" class="edge">
<title>82&#45;&gt;83</title>
<path fill="none" stroke="black" d="M15902.86,-814.64C15765.66,-803.82 15589.13,-789.9 15448.59,-778.82"/>
<polygon fill="black" stroke="black" points="15448.78,-775.32 15438.53,-778.02 15448.23,-782.3 15448.78,-775.32"/>
</g>
<!-- 84 -->
<g id="node85" class="node">
<title>84</title>
<path fill="none" stroke="black" d="M16068,-778C16068,-778 15616,-778 15616,-778 15610,-778 15604,-772 15604,-766 15604,-766 15604,-752 15604,-752 15604,-746 15610,-740 15616,-740 15616,-740 16068,-740 16068,-740 16074,-740 16080,-746 16080,-752 16080,-752 16080,-766 16080,-766 16080,-772 16074,-778 16068,-778"/>
<text text-anchor="middle" x="15842" y="-762.8" font-family="Times,serif" font-size="14.00">SetPathConstraints#1.SetPathConstraints.joint_constraints=joint_3_s,0.0,0.1,0.1,1.0</text>
<text text-anchor="middle" x="15842" y="-747.8" font-family="Times,serif" font-size="14.00">N=1, Q=0.919</text>
</g>
<!-- 82&#45;&gt;84 -->
<g id="edge84" class="edge">
<title>82&#45;&gt;84</title>
<path fill="none" stroke="black" d="M16052.45,-813.92C16012.87,-803.78 15963.34,-791.09 15922.28,-780.57"/>
<polygon fill="black" stroke="black" points="15923.13,-777.17 15912.57,-778.08 15921.39,-783.96 15923.13,-777.17"/>
</g>
<!-- 85 -->
<g id="node86" class="node">
<title>85</title>
<path fill="none" stroke="black" d="M16700,-778C16700,-778 16110,-778 16110,-778 16104,-778 16098,-772 16098,-766 16098,-766 16098,-752 16098,-752 16098,-746 16104,-740 16110,-740 16110,-740 16700,-740 16700,-740 16706,-740 16712,-746 16712,-752 16712,-752 16712,-766 16712,-766 16712,-772 16706,-778 16700,-778"/>
<text text-anchor="middle" x="16405" y="-762.8" font-family="Times,serif" font-size="14.00">SetPathConstraints#1.SetPathConstraints.joint_constraints=joint_1_s,0.0,0.1,0.1,1.0;joint_3_s,0.0,0.1,0.1,1.0</text>
<text text-anchor="middle" x="16405" y="-747.8" font-family="Times,serif" font-size="14.00">N=1, Q=0.916</text>
</g>
<!-- 82&#45;&gt;85 -->
<g id="edge85" class="edge">
<title>82&#45;&gt;85</title>
<path fill="none" stroke="black" d="M16193.8,-813.92C16233.52,-803.78 16283.23,-791.09 16324.44,-780.57"/>
<polygon fill="black" stroke="black" points="16325.35,-783.95 16334.17,-778.08 16323.62,-777.17 16325.35,-783.95"/>
</g>
<!-- 86 -->
<g id="node87" class="node">
<title>86</title>
<path fill="none" stroke="black" d="M17332,-778C17332,-778 16742,-778 16742,-778 16736,-778 16730,-772 16730,-766 16730,-766 16730,-752 16730,-752 16730,-746 16736,-740 16742,-740 16742,-740 17332,-740 17332,-740 17338,-740 17344,-746 17344,-752 17344,-752 17344,-766 17344,-766 17344,-772 17338,-778 17332,-778"/>
<text text-anchor="middle" x="17037" y="-762.8" font-family="Times,serif" font-size="14.00">SetPathConstraints#1.SetPathConstraints.joint_constraints=joint_3_s,0.0,0.1,0.1,1.0;joint_6_s,0.0,0.1,0.1,1.0</text>
<text text-anchor="middle" x="17037" y="-747.8" font-family="Times,serif" font-size="14.00">N=1, Q=0.917</text>
</g>
<!-- 82&#45;&gt;86 -->
<g id="edge86" class="edge">
<title>82&#45;&gt;86</title>
<path fill="none" stroke="black" d="M16343.09,-814.66C16480.56,-803.83 16657.57,-789.89 16798.4,-778.8"/>
<polygon fill="black" stroke="black" points="16798.78,-782.28 16808.47,-778 16798.23,-775.3 16798.78,-782.28"/>
</g>
</g>
</svg>
